<?xml version="1.0" standalone="no"?>
<!DOCTYPE svg PUBLIC "-//W3C//DTD SVG 1.1//EN" "http://www.w3.org/Graphics/SVG/1.1/DTD/svg11.dtd" >
<svg xmlns="http://www.w3.org/2000/svg">
<metadata>
This is a custom SVG webfont generated by Font Squirrel.
Copyright   :  19902006 Apple Computer Inc  1981 Linotype AG  199091 Type Solutions Inc
</metadata>
<defs>
<font id="HelveticaLightOblique" horiz-adv-x="1138" >
<font-face units-per-em="2048" ascent="1470" descent="-578" />
<missing-glyph horiz-adv-x="569" />
<glyph unicode=" "  horiz-adv-x="569" />
<glyph unicode="&#x09;" horiz-adv-x="569" />
<glyph unicode="&#xa0;" horiz-adv-x="569" />
<glyph unicode="!" horiz-adv-x="681" d="M266 0l39 180h150l-39 -180h-150zM373 371l108 645l99 459h149l-98 -459l-166 -645h-92z" />
<glyph unicode="&#x22;" horiz-adv-x="569" d="M332 1012l98 463h107l-99 -463h-106zM559 1012l98 463h107l-98 -463h-107z" />
<glyph unicode="#" d="M154 467l26 121h244l104 286h-229l25 121h245l158 435h123l-158 -435h279l155 435h121l-155 -435h204l-24 -121h-221l-103 -286h209l-27 -121h-227l-164 -467h-121l162 467h-280l-168 -467h-121l168 467h-225zM545 588h282l103 286h-279z" />
<glyph unicode="$" d="M154 315q0 27 3 51.5t7 49.5h133q-14 -70 -4 -130.5t41 -106.5t83 -74.5t120 -32.5l131 608q-80 20 -149.5 48t-116 72t-63.5 109.5t3 161.5q18 86 66.5 155.5t114 119t145.5 75t163 23.5l27 125h94l-26 -125q84 0 150.5 -23.5t109.5 -69.5t59.5 -114t1.5 -154h-133 q12 55 1 101.5t-41 79t-74 51t-99 18.5l-115 -545q94 -25 170 -53t124 -75.5t63.5 -122t-8.5 -191.5q-18 -90 -72.5 -160.5t-127.5 -120t-158 -76t-167 -28.5l-32 -156h-95l33 156q-172 10 -267 96t-95 258zM473 965q12 -45 43 -75t78 -48.5t100 -34.5l111 526 q-57 0 -111.5 -18.5t-98.5 -52t-76 -80.5t-44 -105q-14 -67 -2 -112zM633 72q63 0 124.5 22.5t113 61.5t87 93t50.5 120q16 76 2.5 126t-49 81.5t-88 50t-115.5 32.5z" />
<glyph unicode="%" horiz-adv-x="1820" d="M367.5 958.5q-13.5 61.5 1.5 131.5q14 70 54 131t95 107t123 74t137 28q70 0 126.5 -27t93 -73t50 -108.5t-0.5 -131.5q-14 -70 -54.5 -131.5t-96.5 -107.5t-123.5 -72.5t-137.5 -26.5t-126 26.5t-92 72.5t-49.5 107.5zM442 -29l1127 1473h106l-1126 -1473h-107z M485.5 1004.5q10.5 -39.5 34 -70.5t59 -48.5t80.5 -17.5t89.5 17.5t81 48.5t63.5 70.5t37 85.5q8 45 -1 84.5t-33 70.5t-60.5 49.5t-81.5 18.5t-89 -17.5t-81 -48t-62.5 -71.5t-36.5 -86q-10 -46 0.5 -85.5zM1078.5 207.5q-13.5 62.5 0.5 132.5t54.5 131t96.5 107.5 t123.5 73t137.5 26.5t125 -26.5t90 -73t48 -107.5t-1 -131t-53 -132.5t-93.5 -108.5t-122 -72.5t-136.5 -26.5q-70 0 -126.5 26.5t-93 72.5t-50 108.5zM1196 253q10 -40 33.5 -70.5t60.5 -48t80 -17.5q45 0 88 18.5t80 49t62.5 70.5t35.5 85t1 85t-32.5 70.5t-59.5 48 t-81 17.5q-47 0 -90 -18.5t-80 -49t-62.5 -71.5t-35.5 -86q-10 -43 0 -83z" />
<glyph unicode="&#x26;" horiz-adv-x="1366" d="M165.5 220q-18.5 81 2.5 179q18 82 61 152t103.5 127t134.5 101t151 77q-23 35 -43 73t-33.5 79t-17.5 85t6 93q14 70 52.5 124t91.5 91t117.5 55.5t132.5 18.5t120 -22.5t84.5 -61.5t44 -91.5t-1.5 -109.5q-16 -74 -51 -128t-84 -96t-108.5 -77t-124.5 -70l278 -438 q51 66 78 138.5t43 148.5h121q-27 -100 -69 -199.5t-115 -185.5l180 -283h-166l-106 174q-121 -115 -242 -164t-268 -49q-96 0 -173 32t-128.5 89t-70 138zM302 257q13 -58 49 -99t91.5 -63.5t126.5 -22.5q119 0 222.5 54t195.5 142l-313 500q-68 -29 -128.5 -69t-109.5 -89 t-84 -105t-47 -116q-16 -74 -3 -132zM655 1188q-6 -33 2.5 -72t23.5 -75.5t34.5 -70.5t36.5 -59q70 37 140.5 81t117.5 114q27 41 33 87t-8.5 84t-50.5 62.5t-93 24.5q-39 0 -77 -12.5t-70.5 -35t-56.5 -55t-32 -73.5z" />
<glyph unicode="'" horiz-adv-x="454" d="M389 1012l98 463h107l-98 -463h-107z" />
<glyph unicode="(" horiz-adv-x="681" d="M199 296q4 124 34 269q31 141 80 265t119 239t158 224.5t194 219.5h105q-193 -213 -328 -455.5t-188 -502.5q-55 -256 -20.5 -495.5t130.5 -450.5h-104q-59 117 -101 226.5t-62.5 223t-16.5 237.5z" />
<glyph unicode=")" horiz-adv-x="681" d="M31 -391q193 213 328 455.5t190 502.5q53 256 19.5 496t-132.5 450h105q59 -117 101 -226t62.5 -223t17.5 -238t-34 -269q-31 -141 -81 -265t-118.5 -238.5t-157.5 -224.5t-196 -220h-104z" />
<glyph unicode="*" horiz-adv-x="796" d="M352 1237l56 86l208 -88l52 240h86l-52 -240l252 86l13 -90l-250 -76l106 -217l-90 -49l-104 221l-205 -217l-62 55l203 207z" />
<glyph unicode="+" horiz-adv-x="1351" d="M260 451l27 122h450l94 451h123l-94 -451h451l-27 -122h-450l-97 -451h-123l97 451h-451z" />
<glyph unicode="," horiz-adv-x="569" d="M150 -281l16 76q29 16 56.5 45t41.5 90l15 70h-70l39 180h149l-51 -241q-20 -90 -73 -145t-123 -75z" />
<glyph unicode="-" horiz-adv-x="681" d="M182 469l27 127h518l-27 -127h-518z" />
<glyph unicode="." horiz-adv-x="569" d="M209 0l39 180h149l-39 -180h-149z" />
<glyph unicode="/" horiz-adv-x="569" d="M-45 -184l842 1697h114l-841 -1697h-115z" />
<glyph unicode="0" d="M190.5 427q8.5 134 40.5 284q29 137 75 268t121 234.5t184.5 167t265.5 63.5q106 0 176.5 -32t113.5 -87t60.5 -129t18.5 -157t-11 -171t-31 -172q-31 -143 -79 -274t-122.5 -231.5t-182 -160t-257.5 -59.5t-232.5 59.5t-115.5 161t-24.5 235.5zM322.5 443.5 q-7.5 -113.5 17.5 -193.5t84 -124t164 -44q117 0 198.5 57.5t139 147.5t93.5 202.5t58 221.5q25 117 35 228.5t-10.5 199.5t-79.5 141t-174 53q-109 0 -188.5 -54t-138 -144.5t-98.5 -205t-65 -233.5q-28 -139 -35.5 -252.5z" />
<glyph unicode="1" d="M473 1073l19 86q84 6 152.5 16.5t124.5 39t101 83t82 146.5h105l-307 -1444h-132l228 1073h-373z" />
<glyph unicode="2" d="M98 0q23 104 63 188t126 164q94 86 188 147.5t181 109.5t166 88t141.5 87t106.5 106.5t63 145.5q14 70 0.5 125.5t-48 94t-88 58t-120.5 19.5q-72 0 -136.5 -29.5t-117 -78.5t-88 -115t-48.5 -139h-139q23 106 74 193t126 149.5t169 96.5t201 34q109 0 185.5 -32 t120.5 -85t57 -127t-5 -156q-20 -96 -67.5 -169.5t-111 -131t-140 -102.5t-154.5 -85t-154 -77t-137 -78q-41 -27 -81 -56.5t-72.5 -64t-58.5 -76.5t-40 -93h805l-23 -111h-944z" />
<glyph unicode="3" d="M158 418h131q-16 -82 -4 -144.5t51 -105.5t100.5 -64.5t141.5 -21.5q78 0 150.5 26.5t131 71.5t96 104.5t48.5 123.5q16 88 -8.5 146t-80 92t-137.5 45t-178 5l23 107q92 0 169.5 11t139 43t103.5 85t61 137q14 68 -0.5 116t-50 79t-89 45t-114.5 14q-70 0 -131.5 -22.5 t-110.5 -64.5t-84 -98t-49 -124h-131q23 98 73 177t136 147q80 61 169 78.5t179 17.5q86 0 155.5 -21.5t116.5 -65.5t64.5 -111.5t-0.5 -158.5q-25 -113 -91.5 -194.5t-183.5 -126.5q74 -25 115 -64.5t59.5 -88t18.5 -101.5t-10 -102q-18 -90 -66.5 -168t-120 -137.5 t-166 -95.5t-206.5 -38q-125 0 -212 22.5t-138.5 75t-67.5 137.5t-2 212z" />
<glyph unicode="4" d="M150 356l24 113l875 961h118l-204 -963h200l-22 -111h-201l-76 -356h-131l76 356h-659zM301 467h530l164 766z" />
<glyph unicode="5" d="M152 375h131q-10 -147 71.5 -220t223.5 -73q80 0 150.5 28.5t125.5 79t93 117t54 144.5q16 80 6 147.5t-46.5 116.5t-97 75.5t-142.5 26.5q-98 0 -183 -36t-163 -113l-105 14l275 748h717l-23 -111h-606l-193 -485q47 27 87 45t79 29.5t80 15.5t90 4q98 0 176 -33 t125 -94.5t63.5 -150.5t-7.5 -199q-25 -115 -82.5 -204t-133 -150.5t-165.5 -93.5t-179 -32q-102 0 -186 20.5t-141.5 69t-83.5 125t-10 189.5z" />
<glyph unicode="6" d="M194.5 339q-10.5 132 30.5 323q18 86 47 177t70 178t96.5 165t126 136t157.5 92t193 34q172 0 267.5 -90t79.5 -264h-136q2 111 -52 177t-171 66q-133 0 -223 -63.5t-151.5 -160.5t-100.5 -212t-68 -217q39 41 81 82t92.5 72.5t112 51t140.5 19.5q219 0 313.5 -124 t47.5 -341q-47 -219 -194.5 -344t-368.5 -125q-109 0 -194 36t-135 118t-60.5 214zM348 312.5q4 -62.5 33 -114t84 -84t145 -32.5q92 0 162 31.5t119 84t79.5 117t45.5 129.5q35 168 -26.5 259.5t-231.5 91.5q-76 0 -142.5 -29t-119 -78t-89 -113.5t-51.5 -138.5 q-12 -61 -8 -123.5z" />
<glyph unicode="7" d="M311 0q43 156 132 331t204 347t248 332.5t264 287.5h-762l27 132h919l-24 -123q-193 -176 -341.5 -361.5t-255 -360.5t-173 -327t-94.5 -258h-144z" />
<glyph unicode="8" d="M174 397q29 129 114 230.5t220 148.5q-45 33 -77 62.5t-49 64.5t-20.5 79t11.5 110q16 74 62 139t112.5 113.5t147.5 75t165 24.5q82 0 157 -20.5t127 -63.5t74.5 -109.5t2.5 -158.5q-23 -113 -86.5 -193t-178.5 -131q111 -43 159 -137t22 -221q-47 -213 -209 -326 t-393 -113q-78 0 -153 27t-128 80t-78 133t-2 186zM304 272.5q13 -57.5 51 -99.5t99.5 -66.5t143.5 -24.5q72 0 138.5 23.5t120.5 66.5t92 102.5t55 131.5q16 76 0.5 132t-54.5 94t-98 56.5t-131 18.5q-152 0 -266.5 -75t-149.5 -235q-14 -67 -1 -124.5zM500 1073 q-14 -68 1 -116t52 -78.5t89 -46t112 -15.5q119 0 212 65.5t126 219.5q23 111 -36 171t-208 60q-123 0 -221 -65.5t-127 -194.5z" />
<glyph unicode="9" d="M176 317h133q-4 -236 232 -235q129 0 219 63.5t152.5 159.5t101.5 208t63 210l-4 4q-90 -111 -198.5 -168t-237.5 -57q-102 0 -177 32.5t-121 94t-59.5 147.5t9.5 191q23 102 70 189t117.5 151.5t165.5 100.5t214 36q145 0 230 -57.5t123 -155.5t34 -231.5t-37 -284.5 q-39 -184 -107.5 -322.5t-158.5 -232.5t-196.5 -141.5t-221.5 -47.5q-84 0 -152.5 20.5t-114.5 63.5t-67.5 108.5t-11.5 153.5zM420 963q-35 -166 32.5 -258.5t227.5 -92.5q76 0 142.5 29t118.5 78t87 113.5t51 138.5q33 160 -31.5 259t-216.5 103q-166 -4 -271 -102 t-140 -268z" />
<glyph unicode=":" horiz-adv-x="569" d="M209 0l39 180h149l-39 -180h-149zM385 827l39 181h149l-38 -181h-150z" />
<glyph unicode=";" horiz-adv-x="569" d="M150 -281l16 76q29 16 56.5 45t41.5 90l15 70h-70l39 180h149l-51 -241q-20 -90 -73 -145t-123 -75zM385 827l39 181h149l-38 -181h-150z" />
<glyph unicode="&#x3c;" horiz-adv-x="1351" d="M264 469l23 109l1120 456l-27 -131l-944 -381l776 -403l-26 -131z" />
<glyph unicode="=" horiz-adv-x="1351" d="M217 254l27 123h1024l-27 -123h-1024zM303 651l25 123h1024l-25 -123h-1024z" />
<glyph unicode="&#x3e;" horiz-adv-x="1351" d="M162 -12l26 131l949 403l-781 381l27 131l928 -456l-23 -109z" />
<glyph unicode="?" horiz-adv-x="1024" d="M303 1057q14 102 62.5 186t121 144.5t163.5 93t192 32.5q211 0 306 -105t58 -280q-18 -90 -72.5 -154.5t-123 -119.5t-142 -111.5t-133.5 -126.5q-45 -53 -63.5 -117.5t-30.5 -125.5h-119q20 113 58 205t135 176q55 47 113.5 92t109.5 91t89 95t50 107 q23 111 -42.5 187.5t-219.5 76.5q-76 0 -140.5 -26.5t-115.5 -74t-85 -110t-46 -135.5h-125zM430 0l39 180h149l-38 -180h-150z" />
<glyph unicode="@" horiz-adv-x="1638" d="M234.5 439.5q-29.5 142.5 5.5 303.5q33 160 125 300.5t219 245t279.5 164.5t307.5 60q147 0 266 -48t196 -134t108 -204.5t0 -260.5q-27 -121 -93.5 -229.5t-152.5 -190t-181 -130t-177 -48.5q-53 0 -100.5 25.5t-53.5 81.5q-57 -47 -129 -75t-137 -28q-66 0 -114 25 t-75.5 67t-35 97t5.5 119q23 102 83 211.5t146 200.5t191.5 149.5t220.5 58.5q72 0 128 -35t72 -100l50 94h137l-338 -618q-18 -35 -32.5 -65t-17.5 -52.5t8 -35.5t42 -13q63 0 132 47t130 119.5t106.5 161t63.5 169.5q27 125 0 225.5t-91.5 170t-161.5 106.5t-214 37 q-141 0 -272 -54t-236.5 -147.5t-180.5 -217.5t-104 -263q-31 -139 -6 -260t94.5 -211t177 -142.5t246.5 -52.5q160 0 320 73t281 206h120q-68 -90 -153.5 -160.5t-184 -120t-202 -75t-203.5 -25.5q-164 0 -293 61.5t-211 168t-111.5 249zM655 590q-16 -74 13.5 -131.5 t107.5 -57.5q47 0 95.5 27t95.5 70t89 99t76.5 114.5t58 115t34.5 103.5q14 59 -15.5 104t-93.5 45q-82 0 -157.5 -50t-138 -125t-107 -159.5t-58.5 -154.5z" />
<glyph unicode="A" horiz-adv-x="1366" d="M31 0l893 1475h157l252 -1475h-143l-72 463h-672l-272 -463h-143zM518 582h578l-123 774z" />
<glyph unicode="B" horiz-adv-x="1366" d="M166 0l313 1475h533q129 0 216 -27t134 -76t60 -118q6 -29 6 -59q0 -43 -11 -91q-16 -78 -49 -134.5t-74 -94t-88 -59t-92 -30.5l-2 -4q147 -23 202 -120q35 -63 34 -146q0 -47 -11 -100q-25 -115 -77 -195t-126.5 -129t-168 -70.5t-197.5 -21.5h-602zM330 119h354 q115 0 202 10t150.5 42t102.5 90t59 155q9 46 9 83t-9 65q-18 56 -68.5 87t-128 42.5t-176.5 11.5h-370zM479 823h352q109 0 187 18.5t131 54.5t84 88t45 120q8 37 8 69q0 27 -6 49q-12 48 -55 77.5t-119 43t-191 13.5h-321z" />
<glyph unicode="C" horiz-adv-x="1478" d="M226 439q-1 18 0 37q0 124 30 261q45 211 128 358.5t194.5 241t245.5 135t282 41.5q227 0 356 -118q118 -108 118 -309q0 -19 -1 -39h-143q-4 188 -103.5 268t-288.5 80q-133 0 -241.5 -53.5t-189.5 -143.5t-136 -208t-82 -249q-27 -123 -26.5 -241.5t40.5 -211.5 t128 -150.5t239 -57.5q94 0 178 30.5t155 85t126 128t94 161.5h146q-47 -106 -115 -201.5t-159 -167t-210 -113.5t-266 -42q-170 0 -277.5 62.5t-162 169t-59.5 246.5z" />
<glyph unicode="D" horiz-adv-x="1478" d="M166 0l313 1475h504q61 0 119.5 -3.5t114 -14.5t105.5 -33.5t93 -59.5q61 -53 92 -130t41 -162q6 -47 6 -95q0 -38 -4 -77q-8 -87 -22 -161q-16 -74 -41 -149.5t-60.5 -148t-85 -139t-110.5 -122.5q-63 -57 -131 -92t-139.5 -54.5t-144.5 -26.5t-146 -7h-504zM330 119 h334q94 0 180 11t180 56q82 37 143.5 100.5t105.5 138.5t71.5 157t44.5 157q16 80 23 163q3 31 3 60q0 50 -8 98q-12 75 -49 137.5t-105 102.5q-59 35 -146 45.5t-179 10.5h-334z" />
<glyph unicode="E" horiz-adv-x="1251" d="M166 0l313 1475h981l-24 -119h-842l-115 -533h760l-25 -118h-759l-125 -586h862l-25 -119h-1001z" />
<glyph unicode="F" d="M152 0l313 1475h950l-24 -119h-811l-115 -533h737l-24 -118h-738l-149 -705h-139z" />
<glyph unicode="G" horiz-adv-x="1593" d="M243 401q-5 44 -6 93q0 114 29 251q35 162 105.5 302.5t177 244t248 162.5t315.5 59q117 0 212 -28.5t163.5 -87t105.5 -145.5t37 -205h-143q0 82 -31 147.5t-83 109.5t-122.5 67.5t-152.5 23.5q-145 0 -261 -51.5t-203 -144.5t-146.5 -223t-92.5 -286q-18 -84 -18 -162 q0 -36 4 -71q12 -111 63.5 -195t139.5 -133t215 -49q59 0 125.5 13t132 44t128 80t113.5 121q51 70 80 145.5t49 159.5h-497l24 119h631l-162 -762h-118l53 252q-104 -133 -249.5 -212t-363.5 -79q-139 0 -247.5 49t-173 146.5t-81.5 244.5z" />
<glyph unicode="H" horiz-adv-x="1478" d="M164 0l313 1475h139l-135 -633h873l135 633h139l-313 -1475h-139l153 723h-872l-154 -723h-139z" />
<glyph unicode="I" horiz-adv-x="569" d="M215 0l313 1475h140l-314 -1475h-139z" />
<glyph unicode="J" horiz-adv-x="1024" d="M118 278q5 91 25 189h140q-16 -70 -25 -137q-3 -25 -3 -48q0 -40 9 -74q14 -54 61.5 -87t143.5 -33q143 0 219 82t109 238l227 1067h139l-227 -1072q-47 -215 -171 -328.5t-339 -113.5q-125 0 -192.5 42t-94.5 113q-22 59 -22 133q0 14 1 29z" />
<glyph unicode="K" horiz-adv-x="1366" d="M174 0l313 1475h140l-162 -764l917 764h158l-706 -588l495 -887h-170l-444 801l-281 -232l-121 -569h-139z" />
<glyph unicode="L" d="M166 0l313 1475h139l-288 -1356h790l-24 -119h-930z" />
<glyph unicode="M" horiz-adv-x="1705" d="M160 0l313 1475h213l207 -1301h4l752 1301h211l-314 -1475h-139l279 1315h-5l-761 -1315h-132l-206 1315h-4l-279 -1315h-139z" />
<glyph unicode="N" horiz-adv-x="1478" d="M162 0l313 1475h158l577 -1289h4l275 1289h139l-313 -1475h-162l-575 1286h-5l-272 -1286h-139z" />
<glyph unicode="O" horiz-adv-x="1593" d="M244 435q-4 41 -4 84q0 103 24 216q33 162 107.5 303.5t184.5 247t249 166.5t305 61q172 0 290 -60t182.5 -165.5t77.5 -248.5q4 -39 4 -80q0 -107 -26 -224q-35 -160 -107.5 -300t-181 -245.5t-251 -167t-312.5 -61.5t-285.5 61.5t-179 167t-77.5 245.5zM382 485 q7 -119 54 -209t139.5 -143t237.5 -53q143 0 258 54t201 144.5t143.5 209t83.5 247.5q24 112 24 207q0 36 -3 69q-12 122 -65.5 208t-145.5 131t-219 45q-141 0 -256 -55.5t-201 -146.5t-144.5 -210t-85.5 -248q-23 -105 -22 -202q0 -24 1 -48z" />
<glyph unicode="P" horiz-adv-x="1251" d="M160 0l313 1475h539q143 0 229 -33t128 -90.5t48 -131.5q2 -19 2 -38q0 -57 -14 -119q-27 -123 -93.5 -203t-156.5 -126t-194.5 -64.5t-206.5 -18.5h-316l-139 -651h-139zM463 770h319q98 0 178 12.5t141.5 46t103.5 92t63 152.5q9 40 9 75q0 85 -54 136q-76 72 -275 72 h-360z" />
<glyph unicode="Q" horiz-adv-x="1593" d="M233 435q-4 41 -4 84q0 103 25 216q33 154 104.5 294t179 247.5t249 172t313.5 64.5q156 0 272.5 -51t187 -149.5t89.5 -243.5q6 -47 6 -98q0 -108 -27 -236q-37 -180 -125 -333.5t-223 -262.5l166 -151l-98 -94l-183 167q-86 -47 -182 -73.5t-207 -26.5 q-170 0 -285.5 61.5t-179.5 167t-78 245.5zM372 485q7 -119 54 -209t139 -143t238 -53q78 0 145.5 17.5t126.5 47.5l-141 129l94 97l168 -152q113 90 186.5 226.5t106.5 289.5q24 115 24 210q0 42 -5 79q-15 123 -70.5 206t-147.5 124t-211 41q-141 0 -255.5 -55.5 t-200.5 -147.5t-144.5 -211t-85.5 -246q-23 -105 -23 -202z" />
<glyph unicode="R" horiz-adv-x="1366" d="M164 0l313 1475h578q244 0 353 -92q79 -65 79 -189q0 -49 -12 -107q-29 -139 -104 -221t-214 -139q61 -23 89 -66t35 -98q3 -26 3 -53q0 -31 -4 -64q-8 -61 -18 -118q-16 -84 -23.5 -139.5t-7.5 -90.5t6 -54t18 -30l-2 -14h-153q-11 30 -11 76q0 13 1 27q4 65 14 137 t22.5 140.5t12.5 108.5q0 59 -20.5 95.5t-54.5 54.5t-81 24.5t-98 6.5h-439l-143 -670h-139zM471 788h434q78 0 148.5 16.5t127 52.5t96.5 91.5t56 132.5q9 41 9 75t-9 61q-18 53 -61 83.5t-105.5 43t-132.5 12.5h-442z" />
<glyph unicode="S" horiz-adv-x="1251" d="M178 230q-9 40 -9 88q0 56 13 122h135q-5 -37 -4 -69q0 -54 13 -98q20 -69 67 -111.5t117 -62t154 -19.5q98 0 174.5 24.5t131 66.5t88.5 97.5t46 116.5q7 34 7 64q0 44 -16 75q-28 53 -84.5 87t-132 54.5t-155.5 40t-155.5 46t-129 71.5t-77.5 116q-12 36 -12 82 q0 44 11 97q16 76 63.5 147.5t121 127t175 88t224.5 32.5q125 0 210 -34.5t134 -95t64 -140.5q6 -33 6 -67q0 -49 -12 -103h-134q9 43 10 81q0 35 -9 65q-17 61 -58 100t-103.5 57.5t-131.5 18.5q-106 0 -185.5 -30t-132.5 -77t-81.5 -104.5t-31.5 -114.5v-14q0 -62 32 -101 q36 -43 95.5 -70.5t135 -45t153.5 -37t149.5 -46t121 -71.5t70.5 -116q11 -35 11 -77q0 -45 -12 -100q-43 -205 -209 -317.5t-422 -112.5q-115 0 -207 29.5t-150.5 90t-78.5 149.5z" />
<glyph unicode="T" d="M322 1356l24 119h1073l-24 -119h-467l-289 -1356h-139l288 1356h-466z" />
<glyph unicode="U" horiz-adv-x="1478" d="M287 555l194 920h140l-187 -879q-26 -120 -26 -210q0 -117 44 -185q77 -121 304 -121q119 0 208 31.5t154.5 96t108.5 161t71 227.5l187 879h139l-194 -920q-61 -289 -236.5 -441.5t-462.5 -152.5q-289 0 -397 156q-69 99 -69 250q0 86 22 188z" />
<glyph unicode="V" horiz-adv-x="1251" d="M350 1475h146l166 -1311l720 1311h146l-826 -1475h-153z" />
<glyph unicode="W" horiz-adv-x="1820" d="M342 1475h139l45 -1278h4l615 1278h155l64 -1278h4l594 1278h143l-700 -1475h-154l-65 1303h-4l-619 -1303h-153z" />
<glyph unicode="X" horiz-adv-x="1251" d="M37 0l670 758l-336 717h161l273 -621l536 621h162l-635 -717l344 -758h-159l-291 651l-567 -651h-158z" />
<glyph unicode="Y" horiz-adv-x="1251" d="M338 1475h160l282 -711l596 711h162l-711 -832l-137 -643h-139l135 633z" />
<glyph unicode="Z" horiz-adv-x="1251" d="M63 0l25 117l1208 1239h-864l25 119h1036l-25 -117l-1208 -1239h950l-24 -119h-1123z" />
<glyph unicode="[" horiz-adv-x="681" d="M102 -391l406 1904h391l-22 -102h-261l-360 -1700h256l-23 -102h-387z" />
<glyph unicode="\" horiz-adv-x="569" d="M301 1513h115l121 -1697h-115z" />
<glyph unicode="]" horiz-adv-x="681" d="M20 -391l23 102h260l361 1700h-256l22 102h387l-405 -1904h-392z" />
<glyph unicode="^" horiz-adv-x="1351" d="M256 502l668 928h106l277 -928h-117l-242 803l-573 -803h-119z" />
<glyph unicode="_" horiz-adv-x="1024" d="M-55 -256l22 102h1024l-22 -102h-1024z" />
<glyph unicode="`" horiz-adv-x="681" d="M403 1460h160l166 -284h-104z" />
<glyph unicode="a" d="M154 142q-8 28 -8.5 62t8.5 72q55 270 438 320l174 22q35 4 85 12.5t85 22.5t48 48t20 63q6 29 6 56q0 16 -2 30q-6 39 -32 67.5t-72 45t-118 16.5q-127 0 -221 -51t-139 -189h-125q27 94 77 161t117.5 109t148.5 61.5t167 19.5q80 0 146.5 -17.5t110.5 -55.5t60 -102 q8 -30 8 -66q0 -41 -10 -89l-122 -578q-7 -31 -8 -52q0 -28 13 -39q9 -8 27 -8q28 0 78 17l-20 -96q-14 -4 -44 -12t-57 -8t-53 6q-59 10 -68 56q-4 20 -3 43q0 28 5 58q-96 -86 -205.5 -131t-226.5 -45q-70 0 -130 18.5t-101 57.5t-57 95zM283 272q-5 -22 -5 -42 q0 -24 7 -43q12 -36 39.5 -59.5t66.5 -34.5t82 -11q74 0 146.5 18.5t135 56.5t107.5 96t64 138l35 166q-86 -33 -167 -43t-163 -16q-143 -10 -234 -63.5t-114 -162.5z" />
<glyph unicode="b" horiz-adv-x="1251" d="M162 0l313 1475h123l-125 -584q80 98 194.5 148.5t227.5 50.5q121 0 201 -46.5t122 -123t49 -179.5q2 -23 1 -46q0 -81 -19 -167q-25 -117 -74 -219t-122.5 -177t-173 -118t-228.5 -43q-51 0 -101 14.5t-94 41t-78 66.5t-50 93h-4l-39 -186h-123zM383 355q6 -83 39 -143 t93 -95t147 -35q78 0 149.5 27.5t130.5 81t103.5 130t66.5 177.5q23 93 23 174v13q-2 87 -33 152.5t-93.5 103.5t-156.5 38q-84 0 -157.5 -36t-134 -96.5t-102.5 -141t-61 -170.5q-16 -74 -15 -141q0 -20 1 -39z" />
<glyph unicode="c" d="M190 309q-1 20 -1 42q0 84 20 177q23 111 76 212.5t131 179t179 124t220 46.5q184 0 280 -89q84 -78 84 -233q0 -20 -1 -41h-125q-6 119 -72 185.5t-188 66.5q-94 0 -170 -39t-133.5 -103.5t-94.5 -145.5t-55 -163q-16 -72 -16 -141q0 -11 1 -22q3 -80 32.5 -143.5 t89 -101.5t155.5 -38q137 0 236.5 75.5t148.5 209.5h131q-35 -88 -86 -161t-118.5 -125t-151.5 -81t-184 -29q-127 0 -210 43t-127.5 118t-50.5 177z" />
<glyph unicode="d" horiz-adv-x="1251" d="M208 309q-1 18 -1 36q0 87 20 183q25 111 74 213.5t124 179t174 123t220 46.5q113 0 206 -50.5t130 -148.5l125 584h123l-313 -1475h-123l39 186h-5q-37 -53 -88 -93t-106 -66.5t-111.5 -41t-107.5 -14.5q-129 0 -211 43t-123 118t-46 177zM343 321q11 -77 48 -130.5 t97.5 -81t138.5 -27.5q86 0 160.5 35t133 95t98.5 143t60 180q13 65 14 125q0 23 -2 46q-7 81 -40 141t-91.5 96t-142.5 36q-96 0 -174 -38t-137.5 -103.5t-98 -152.5t-55.5 -187q-13 -65 -13 -120q0 -30 4 -57z" />
<glyph unicode="e" d="M186 308q-1 20 -1 41q0 84 20 177q25 117 80 219.5t134 179t178 121t214 44.5q219 0 312 -151q55 -90 56 -227q0 -94 -26 -210h-823q-14 -65 -14 -124q0 -20 1 -39q6 -77 39 -133t93.5 -90t148.5 -34q121 0 220.5 63.5t152.5 180.5h137q-39 -76 -89 -140.5t-115.5 -112.5 t-147.5 -75t-183 -27q-127 0 -209.5 43t-127 118t-50.5 176zM352 604h692q11 54 12 104q0 22 -2 43q-7 69 -38 119t-88.5 79.5t-139.5 29.5t-150.5 -30.5t-123.5 -82t-96 -119t-66 -143.5z" />
<glyph unicode="f" horiz-adv-x="569" d="M199 0l202 958h-157l22 103h158l37 168q27 127 93.5 200.5t188.5 73.5q59 0 101 -8l-25 -113q-37 10 -69 11q-47 0 -78 -17.5t-49.5 -46.5t-28.5 -64.5t-19 -72.5l-28 -131h205l-23 -103h-205l-202 -958h-123z" />
<glyph unicode="g" horiz-adv-x="1251" d="M117 -129h131q0 -59 22.5 -97t60.5 -59.5t87 -30t104 -8.5q125 0 210 43t139.5 113t84 158t48.5 180q-80 -98 -195 -148.5t-227 -50.5q-121 0 -201 46t-122 123t-49 179q-2 23 -2 47q0 81 19 166q25 117 74 219.5t123 177.5t173 118t228 43q51 0 101.5 -14.5t94.5 -41 t78 -67.5t50 -93h4l39 187h123l-203 -959q-23 -106 -64.5 -203.5t-113.5 -171t-177.5 -117.5t-256.5 -44q-117 0 -195 29.5t-122 74.5t-59 100q-10 35 -10 67q0 18 3 34zM342 376q2 -87 34 -152.5t93 -103.5t158 -38q84 0 157.5 36t133 96t101.5 141t60 171q16 74 16 141 q0 20 -1 39q-6 83 -39 143t-92.5 95t-145.5 35q-78 0 -149.5 -27.5t-132 -81t-104.5 -130t-66 -177.5q-23 -93 -23 -174v-13z" />
<glyph unicode="h" d="M147 0l314 1475h123l-119 -562q90 78 179 127.5t200 49.5q98 0 175 -34t116 -118q22 -48 22 -98q0 -10 -1 -20q-5 -60 -19 -126l-148 -694h-123l148 692q12 56 12 101q0 70 -30 114q-48 72 -195 72q-57 0 -108.5 -17.5t-95.5 -46t-79 -65.5t-57 -78q-29 -51 -43.5 -98 t-26.5 -103l-121 -571h-123z" />
<glyph unicode="i" horiz-adv-x="454" d="M166 0l225 1061h123l-225 -1061h-123zM434 1292l39 183h135l-39 -183h-135z" />
<glyph unicode="j" horiz-adv-x="454" d="M-78 -410l25 109q29 -4 52 -4q61 0 90 26q40 37 58 121l259 1219h122l-256 -1202q-14 -68 -30.5 -119t-45 -87t-74.5 -53.5t-120 -17.5q-45 0 -80 8zM449 1292l38 183h136l-39 -183h-135z" />
<glyph unicode="k" horiz-adv-x="1024" d="M139 0l314 1475h122l-194 -918l627 504h168l-480 -383l301 -678h-137l-272 592l-240 -191l-86 -401h-123z" />
<glyph unicode="l" horiz-adv-x="454" d="M166 0l313 1475h123l-313 -1475h-123z" />
<glyph unicode="m" horiz-adv-x="1705" d="M131 0l225 1061h123l-33 -160h5q66 92 164 140.5t202 48.5q74 0 122 -16.5t78 -44.5t45 -64.5t23 -79.5q74 104 174.5 154.5t215.5 50.5q109 0 166 -36t79 -95q18 -48 19 -106q0 -13 -1 -28q-5 -76 -22 -155l-143 -670h-123l156 733q11 53 11 96q0 50 -21 83 q-19 32 -59 49.5t-105 17.5q-68 0 -137.5 -29.5t-129.5 -91.5q-25 -27 -46 -62.5t-37.5 -74.5t-29 -78t-18.5 -72l-121 -571h-122l155 733q11 53 12 96q0 50 -21 83q-19 32 -59 49.5t-106 17.5q-68 0 -137.5 -29.5t-128.5 -91.5q-25 -27 -46.5 -62.5t-37.5 -74.5t-28.5 -78 t-18.5 -72l-121 -571h-123z" />
<glyph unicode="n" d="M147 0l226 1061h123l-31 -148q90 78 179 127.5t200 49.5q98 0 175 -34t116 -118q22 -48 22 -98q0 -10 -1 -20q-5 -60 -19 -126l-148 -694h-123l148 692q12 56 12 101q0 70 -30 114q-48 72 -195 72q-57 0 -108.5 -17.5t-95.5 -46t-79 -65.5t-57 -78q-29 -51 -43.5 -98 t-26.5 -103l-121 -571h-123z" />
<glyph unicode="o" d="M178 287q-6 38 -6 80q0 75 18 163q25 117 77 218.5t130 177t179.5 120t224.5 44.5q125 0 208 -44.5t128 -119t53 -176.5q2 -26 2 -53q0 -79 -18 -167q-27 -127 -84.5 -229t-137.5 -176t-179 -114t-210 -40q-102 2 -183 37t-133.5 105t-68.5 174zM307 349q6 -83 39 -142.5 t93.5 -92t148.5 -32.5q96 0 173 38t133 101.5t93 143t55 165.5q17 85 17 160v17q-2 82 -32 142t-90 95t-159 35q-96 0 -173 -38t-134 -100.5t-94 -143.5t-55 -167q-16 -76 -16 -142q0 -20 1 -39z" />
<glyph unicode="p" horiz-adv-x="1251" d="M74 -418l313 1479h123l-39 -187h4q37 51 88 92.5t106.5 68t112 41t107.5 14.5q129 0 211 -43t123 -118t46 -177q1 -18 1 -36q0 -87 -21 -184q-25 -111 -74 -213t-123.5 -179t-174 -123t-220.5 -46q-113 0 -206 50.5t-129 148.5l-125 -588h-123zM386 355q7 -81 41 -141 t92.5 -96t142.5 -36q94 0 172.5 38t137 103.5t97.5 152.5t55 187q14 69 14 127q0 111 -52 181q-79 108 -234 108q-86 0 -161 -35t-133 -95.5t-99 -143t-62 -179.5q-13 -65 -13 -125q0 -23 2 -46z" />
<glyph unicode="q" horiz-adv-x="1251" d="M210 319q-2 23 -2 47q0 81 19 166q25 117 74 219.5t123 177.5t173 118t228 43q51 0 101.5 -14.5t94.5 -41t78 -67.5t50 -93h4l39 187h123l-314 -1479h-122l125 588q-80 -98 -195 -148.5t-227 -50.5q-121 0 -201 46t-122 123t-49 179zM343 321q11 -77 48 -130.5t97.5 -81 t138.5 -27.5q86 0 160.5 35t133 95t98.5 143t60 180q13 65 14 125q0 23 -2 46q-7 81 -40 141t-91.5 96t-142.5 36q-96 0 -174 -38t-137.5 -103.5t-98 -152.5t-55.5 -187q-13 -65 -13 -120q0 -30 4 -57z" />
<glyph unicode="r" horiz-adv-x="681" d="M154 0l225 1061h123l-43 -199h4q78 127 170 177.5t225 50.5l-29 -134q-6 0 -11 1q-95 0 -166 -33q-75 -35 -127 -94.5t-85.5 -140.5t-52.5 -169l-111 -520h-122z" />
<glyph unicode="s" horiz-adv-x="1024" d="M164 332h125q2 -137 64.5 -193.5t201.5 -56.5q68 0 120 16.5t90 44t61.5 62.5t31.5 74q5 22 5 40q0 48 -30 75q-42 38 -114 59.5t-156 37t-153.5 46t-107.5 88.5q-24 36 -24 90q0 32 9 71q29 133 143.5 218.5t292.5 85.5q172 0 262 -77q78 -66 78 -210q0 -23 -2 -47h-125 q1 14 1 26q0 102 -58 147q-66 50 -181 50q-117 0 -189.5 -50t-88.5 -132q-4 -19 -4 -36q0 -30 14 -52q23 -35 66 -57.5t100 -38t117.5 -31t117 -36t97.5 -54t59 -84.5q10 -27 10 -62q0 -30 -8 -65q-16 -76 -60 -134.5t-110.5 -97.5t-149.5 -58.5t-177 -19.5t-161 28t-108 77 t-56 114q-9 36 -9 76q1 32 6 66z" />
<glyph unicode="t" horiz-adv-x="569" d="M229 182l164 776h-149l22 103h150l63 295h123l-63 -295h198l-22 -103h-199l-154 -727q-8 -39 -12 -67.5t3 -47t26.5 -26.5t58.5 -8q25 0 50.5 4t52.5 10l-21 -100q-23 -4 -62.5 -14.5t-84.5 -10.5q-92 0 -130 46q-23 28 -23 83q-1 35 9 82z" />
<glyph unicode="u" d="M211 208q-1 13 -1 26q0 60 15 128l148 699h123l-148 -696q-11 -51 -11 -94q0 -71 31 -116q48 -73 193 -73q76 0 142.5 29.5t118.5 83t90 127t57 161.5l123 578h122l-225 -1061h-123l31 147q-31 -29 -67.5 -59.5t-83 -56t-102.5 -43t-126 -17.5q-106 0 -171.5 30t-98.5 83 t-37 124z" />
<glyph unicode="v" horiz-adv-x="1024" d="M260 1061h133l152 -909l536 909h133l-636 -1061h-138z" />
<glyph unicode="w" horiz-adv-x="1478" d="M256 1061h123l82 -905l438 905h137l43 -897l469 897h125l-569 -1061h-131l-43 891h-4l-424 -891h-148z" />
<glyph unicode="x" horiz-adv-x="1024" d="M37 0l524 549l-266 512h151l203 -422l391 422h156l-491 -512l280 -549h-147l-224 459l-428 -459h-149z" />
<glyph unicode="y" horiz-adv-x="1024" d="M53 -403l25 114q23 -4 48.5 -8t51.5 -4q51 0 91 32.5t71 79t56.5 96.5t49.5 85l-184 1069h137l148 -911l532 911h133l-618 -1047q-59 -100 -108.5 -180t-98.5 -136t-102.5 -86t-116.5 -30q-33 0 -62.5 4.5t-52.5 10.5z" />
<glyph unicode="z" horiz-adv-x="1024" d="M68 0l22 109l885 849h-658l23 103h815l-22 -109l-885 -850h731l-23 -102h-888z" />
<glyph unicode="{" horiz-adv-x="681" d="M211 559v4q61 16 99 38t61.5 50.5t37 67.5t23.5 90l80 373q18 90 46 153.5t70 103.5t102.5 56t148.5 14q-180 -57 -220 -247l-84 -394q-12 -59 -28.5 -108t-43 -88t-65.5 -66.5t-96 -42.5v-4q96 -23 114.5 -92.5t-5.5 -183.5l-89 -422q-23 -104 6 -161.5t121 -86.5l-2 -4 q-90 -2 -146 14.5t-85 53t-31 93t15 134.5l88 418q10 47 12 85.5t-10.5 69.5t-41 51.5t-77.5 30.5z" />
<glyph unicode="|" horiz-adv-x="823" d="M512 -559v2238h104v-2238h-104z" />
<glyph unicode="}" horiz-adv-x="681" d="M39 -379q176 57 217 248l84 393q12 59 29.5 108.5t43 88.5t64.5 66.5t96 41.5v4q-96 23 -114.5 92.5t6.5 184.5l90 422q23 104 -6 161.5t-121 86.5v4q90 2 146.5 -14.5t85 -53.5t30.5 -93t-14 -134l-88 -418q-10 -47 -12.5 -86t10 -69.5t41 -51t78.5 -31.5v-4 q-61 -16 -99.5 -37.5t-62 -50t-36.5 -67.5t-24 -90l-77 -373q-18 -90 -46 -153.5t-70 -103.5t-102.5 -57.5t-148.5 -13.5z" />
<glyph unicode="~" horiz-adv-x="1351" d="M260 453q29 33 64.5 69.5t76.5 68.5t89.5 52.5t103.5 20.5t112.5 -23t110.5 -51q55 -29 105.5 -51.5t91.5 -22.5q35 0 68.5 17.5t64.5 44t58.5 57.5t47.5 59l68 -69q-31 -41 -67.5 -81t-78.5 -72t-89.5 -51.5t-98.5 -19.5q-29 0 -63.5 9.5t-70.5 22.5t-67.5 28.5 t-56.5 25.5q-37 16 -76 39t-84 23q-41 0 -77.5 -18.5t-69.5 -47t-61.5 -62.5t-53.5 -65z" />
<glyph unicode="&#xa1;" horiz-adv-x="681" d="M184 -383l99 459l166 645h92l-109 -645l-98 -459h-150zM461 911l37 179h149l-37 -179h-149z" />
<glyph unicode="&#xa2;" d="M190 -289l166 307q-121 66 -154.5 201t3.5 309q29 135 88 239.5t139 176.5t177.5 109t201.5 37q61 0 119 -11l135 246h98l-149 -274q174 -82 160 -324h-125q-6 139 -99 207l-454 -838q23 -6 48 -10t54 -4q137 0 236.5 75.5t148.5 209.5h131q-29 -80 -79 -152t-118.5 -126 t-155.5 -86t-188 -32q-39 0 -71.5 4.5t-63.5 12.5l-151 -277h-97zM321.5 411.5q-2.5 -57.5 7 -108.5t32 -93t59.5 -71l450 830q-20 6 -39.5 8t-42.5 2q-94 0 -169.5 -39t-133 -103.5t-94.5 -145.5t-55 -163q-12 -59 -14.5 -116.5z" />
<glyph unicode="&#xa3;" d="M104 113q104 66 187.5 160t107.5 208q20 92 -4 181h-202l18 86h166q-8 29 -20.5 59.5t-21.5 68t-10 85t11 108.5q16 80 60 148.5t111.5 118.5t159 79t205.5 29q100 0 180.5 -31t130.5 -88t66.5 -140t-6.5 -186h-135q29 162 -41 248t-217 86q-61 0 -123.5 -16.5t-116 -50 t-92.5 -85t-53 -118.5q-10 -47 -4 -87t18.5 -78t28.5 -75t29 -75h340l-19 -86h-309q2 -33 1 -69t-9 -71q-12 -57 -40 -110.5t-66 -101.5t-83 -91t-90 -82l4 -4q43 20 94.5 37.5t100.5 17.5q70 0 113.5 -13t80.5 -30q37 -16 74 -29.5t88 -13.5q72 0 129.5 35t116.5 82 l47 -104q-55 -41 -99 -69t-87 -44t-91.5 -23.5t-109.5 -7.5q-37 0 -74 14.5t-78 30.5t-88 30.5t-104 14.5q-59 0 -115.5 -22.5t-113.5 -44.5z" />
<glyph unicode="&#xa4;" d="M113 225l106 86q-35 72 -43 143.5t10 159.5q18 92 57.5 164t106.5 146l-69 88l129 108l71 -88q80 53 166 77t172 24t151.5 -27t125.5 -74l108 88l84 -108l-106 -88q35 -76 43 -151t-13 -169q-18 -86 -58 -153.5t-103 -139.5l69 -86l-129 -108l-71 88q-162 -102 -338 -103 q-86 0 -151.5 28t-125.5 75l-108 -88zM330.5 474.5q15.5 -66.5 54.5 -117t99.5 -80t133.5 -29.5q76 0 151 28.5t136.5 79t104.5 119t59 146.5q16 74 2 140t-52 116.5t-97.5 80t-135.5 27.5q-80 2 -154.5 -25.5t-136 -78t-104.5 -119t-57 -148.5q-19 -73 -3.5 -139.5z" />
<glyph unicode="&#xa5;" d="M225 446l25 111h373l18 86l-49 135h-295l22 111h228l-225 586h155l252 -711l565 711h150l-475 -586h227l-22 -111h-295l-107 -135l-18 -86h372l-24 -111h-373l-94 -446h-131l94 446h-373z" />
<glyph unicode="&#xa6;" horiz-adv-x="821" d="M512 -389v780h102v-780h-102zM512 729v782h102v-782h-102z" />
<glyph unicode="&#xa7;" d="M193 2h124q-27 -127 23.5 -194.5t179.5 -67.5q43 0 87 12t81 37t63.5 60.5t36.5 82.5q10 49 -3 89t-39.5 74t-60.5 61.5t-64 52.5l-234 168q-86 61 -126 133t-17 176t102.5 180t179.5 115q-37 53 -56 106.5t-3 129.5q12 59 48 113t91.5 95t130 64.5t164.5 23.5 q172 0 242.5 -98t34.5 -268h-111q25 129 -21.5 192.5t-177.5 63.5q-98 0 -174 -48t-98 -151q-14 -70 26 -125t107.5 -105t147 -98.5t146.5 -103.5t103.5 -123.5t18.5 -156.5q-12 -59 -41 -105.5t-68 -84.5t-86 -68.5t-98 -61.5q8 -10 23.5 -29.5t30 -47t20.5 -65.5t-4 -83 q-16 -78 -57.5 -137.5t-98.5 -99.5t-127 -60.5t-143 -20.5q-174 0 -253 100.5t-50 272.5zM358 702q-8 -39 1.5 -71.5t28 -60t45 -51t50.5 -44.5l316 -235q37 18 74.5 40.5t69.5 51t54.5 62.5t32.5 77q8 41 -2 75t-31.5 61.5t-50 50t-55.5 40.5l-307 217q-90 -35 -150 -86 t-76 -127z" />
<glyph unicode="&#xa8;" horiz-adv-x="681" d="M377 1196l45 209h133l-45 -209h-133zM702 1196l46 209h133l-45 -209h-134z" />
<glyph unicode="&#xa9;" horiz-adv-x="1638" d="M196.5 436.5q-30.5 141.5 4.5 302.5q33 160 124 301.5t219 246t282.5 165.5t316.5 61q160 0 288 -61t210.5 -165.5t113.5 -246t-2 -301.5q-35 -162 -126 -303t-218 -246.5t-281.5 -167t-314.5 -61.5q-162 0 -291 61.5t-212 167t-113.5 247zM315.5 473q22.5 -123 91 -214 t178 -143.5t251.5 -52.5q141 0 271 52.5t236.5 143.5t181 214t105.5 266q31 141 7.5 264t-91 213.5t-176 142.5t-250.5 52q-141 0 -272 -52t-237.5 -142.5t-181.5 -213t-105 -264.5q-31 -143 -8.5 -266zM576.5 567q-13.5 82 7.5 178q20 96 66 177.5t113.5 140.5t154 93 t184.5 34q70 0 127 -19.5t98 -57.5t61.5 -92t16.5 -124h-111q2 92 -57 147.5t-152 55.5q-78 0 -140 -28t-111.5 -76t-82 -112.5t-46.5 -135.5q-16 -70 -9.5 -135.5t35.5 -116t80 -80t127 -29.5q45 0 90 14.5t85 42t70.5 66.5t47.5 88h110q-23 -70 -65.5 -126t-100 -95 t-123 -59.5t-132.5 -20.5q-98 0 -170 35t-116 94t-57.5 141z" />
<glyph unicode="&#xaa;" horiz-adv-x="684" d="M233 1024q37 162 281 193l115 14q23 2 55.5 6t54.5 14q23 8 31 28.5t12 37.5q12 57 -19.5 96t-123.5 39q-84 0 -144.5 -33t-88.5 -116h-82q35 113 125 161.5t204 48.5q51 0 95.5 -10t73 -33.5t39.5 -61.5t-1 -93l-72 -346q-10 -43 4.5 -54.5t67.5 5.5l-12 -58 q-18 -6 -39 -10t-61 0q-39 6 -44.5 33.5t-1.5 62.5q-123 -106 -278 -106q-45 0 -84 11t-65.5 33.5t-39 56.5t-2.5 81zM313 1022q-12 -59 30 -89t99 -30q47 0 95.5 11.5t88.5 35t69.5 59t39.5 85.5l21 100q-55 -20 -108.5 -26.5t-106.5 -10.5q-92 -6 -153 -37.5t-75 -97.5z " />
<glyph unicode="&#xab;" d="M330 467l28 129l349 231l-29 -129l-248 -168l178 -163l-26 -127zM707 467l28 129l348 231l-28 -129l-248 -168l178 -163l-27 -127z" />
<glyph unicode="&#xac;" horiz-adv-x="1351" d="M303 651l25 123h1024l-115 -545h-131l90 422h-893z" />
<glyph unicode="&#xad;" horiz-adv-x="681" d="M182 469l27 127h518l-27 -127h-518z" />
<glyph unicode="&#xae;" horiz-adv-x="1638" d="M196.5 436.5q-30.5 141.5 4.5 302.5q33 160 124 301.5t219 246t282.5 165.5t316.5 61q160 0 288 -61t210.5 -165.5t113.5 -246t-2 -301.5q-35 -162 -126 -303t-218 -246.5t-281.5 -167t-314.5 -61.5q-162 0 -291 61.5t-212 167t-113.5 247zM315.5 473q22.5 -123 91 -214 t178 -143.5t251.5 -52.5q141 0 271 52.5t236.5 143.5t181 214t105.5 266q31 141 7.5 264t-91 213.5t-176 142.5t-250.5 52q-141 0 -272 -52t-237.5 -142.5t-181.5 -213t-105 -264.5q-31 -143 -8.5 -266zM598 305l184 866h379q86 0 141.5 -15t85 -45t37 -73t-5.5 -96 q-29 -127 -118 -181t-205 -56l178 -400h-127l-164 400h-195l-83 -400h-107zM807 788h162h98q53 0 101.5 12.5t85 45.5t51.5 98q10 51 -2.5 81t-40 45t-65.5 20.5t-77 5.5h-248z" />
<glyph unicode="&#xaf;" horiz-adv-x="681" d="M313 1253l21 93h606l-20 -93h-607z" />
<glyph unicode="&#xb0;" horiz-adv-x="819" d="M342 1017q-12 56 2 120q12 63 48 118.5t87 97.5t112.5 66.5t125.5 24.5q63 0 113.5 -24.5t83 -66.5t45 -97.5t-0.5 -118.5q-14 -63 -50 -119.5t-87 -97.5t-111.5 -66t-123.5 -25t-114.5 25t-84.5 66t-45 97zM425 1049q9 -41 33.5 -72t61.5 -48.5t84 -17.5q45 0 90 17.5 t82 48.5t63.5 72t37.5 88q10 45 0.5 86t-34 71.5t-62.5 49t-85 18.5t-91 -18.5t-81 -49t-63.5 -71.5t-34.5 -86q-10 -47 -1 -88z" />
<glyph unicode="&#xb1;" horiz-adv-x="1351" d="M164 0l26 123h1024l-26 -123h-1024zM281 553l26 123h451l73 348h123l-73 -348h450l-26 -123h-451l-74 -348h-123l74 348h-450z" />
<glyph unicode="&#xb2;" horiz-adv-x="681" d="M168 647q14 61 37.5 112.5t79.5 98.5q59 51 120.5 88t119 65.5t107.5 53.5t91 53.5t68.5 64.5t37.5 87q16 86 -34 132t-136 46q-47 0 -88 -17.5t-74.5 -48t-56 -70.5t-30.5 -83h-91q27 129 126.5 206.5t238.5 77.5q141 0 200.5 -69.5t37.5 -169.5q-18 -86 -74.5 -143.5 t-129.5 -98.5t-149.5 -73.5t-136.5 -69.5q-53 -33 -98 -73t-62 -103h523l-15 -66h-612z" />
<glyph unicode="&#xb3;" horiz-adv-x="681" d="M213 897h86q-23 -98 31.5 -149.5t158.5 -51.5q51 0 98.5 16.5t84.5 43t60.5 62.5t29.5 73q10 53 -6.5 88t-52 55.5t-89 27.5t-114.5 3l12 63q119 0 201 33t102 133q16 80 -35 117t-131 37q-92 0 -158.5 -52.5t-82.5 -133.5h-84q12 59 42.5 106t88.5 88q53 37 109.5 47 t115.5 10q55 0 101 -13t77 -39.5t44 -66.5t1 -94q-29 -139 -174 -194q47 -14 74.5 -38t40 -53.5t12.5 -60t-6 -61.5q-23 -109 -118 -183.5t-243 -78.5q-82 0 -138 13t-90 44t-45 82t-3 127z" />
<glyph unicode="&#xb4;" horiz-adv-x="681" d="M473 1176l289 284h158l-342 -284h-105z" />
<glyph unicode="&#xb5;" d="M59 -418l314 1479h123l-148 -696q-29 -137 19.5 -210t193.5 -73q76 0 142.5 29.5t118.5 83t90 127t57 161.5l123 578h122l-225 -1061h-123l31 147q-31 -29 -67.5 -59.5t-83 -56t-102.5 -43t-126 -17.5q-86 0 -145.5 20.5t-93.5 45.5l-97 -455h-123z" />
<glyph unicode="&#xb6;" horiz-adv-x="1331" d="M364.5 926.5q-16.5 70.5 0.5 150.5q41 193 182 295.5t358 102.5h445l-377 -1774h-123l348 1636h-262l-348 -1636h-123l209 987q-78 0 -142.5 31t-107.5 84t-59.5 123.5z" />
<glyph unicode="&#xb7;" horiz-adv-x="569" d="M336 717q10 41 47 69.5t76 28.5q41 0 63.5 -28.5t12.5 -69.5q-8 -41 -43 -71t-76 -30t-64.5 30t-15.5 71z" />
<glyph unicode="&#xb8;" horiz-adv-x="681" d="M29 -385l43 61q31 -10 60.5 -20t64.5 -10q23 0 47 5t46.5 16t39 29.5t22.5 45.5q10 41 -17.5 60.5t-66.5 19.5q-23 0 -46 -5t-48 -12l-24 27l157 168h80l-123 -121l40 8t38 4q68 0 102.5 -33.5t32.5 -72.5q-2 -55 -26.5 -95t-62.5 -64.5t-85 -37t-96 -12.5 q-47 0 -92 11.5t-86 27.5z" />
<glyph unicode="&#xb9;" horiz-adv-x="681" d="M453 1290l10 53q55 2 99 8.5t81 24t65.5 50t51.5 87.5h67l-184 -866h-86l137 643h-241z" />
<glyph unicode="&#xba;" horiz-adv-x="684" d="M266.5 1032.5q-12.5 61.5 5.5 145.5q14 70 48 131t83.5 106t115 71.5t145.5 26.5t135 -26.5t84.5 -71.5t36 -106.5t-8.5 -130.5q-16 -76 -52 -137.5t-87 -105.5t-115.5 -68.5t-136.5 -24.5q-66 2 -119 23.5t-87.5 63.5t-47 103.5zM352 1178q-25 -119 20.5 -197t162.5 -78 q63 0 113 23.5t87 62.5t61.5 88t34.5 101q12 55 9.5 105t-23 88t-61.5 59.5t-105 21.5q-63 0 -113.5 -23.5t-88 -62.5t-62.5 -88t-35 -100z" />
<glyph unicode="&#xbb;" d="M283 240l26 129l250 168l-178 163l27 127l249 -227l-26 -129zM659 240l27 129l250 168l-178 163l26 127l250 -227l-26 -129z" />
<glyph unicode="&#xbc;" horiz-adv-x="1708" d="M338 -29l1223 1473h104l-1223 -1473h-104zM356 1290l11 53q55 2 99 8.5t81 24t65.5 50t51.5 87.5h67l-184 -866h-86l137 643h-242zM1028 213l14 68l560 577h77l-123 -577h130l-15 -68h-129l-45 -213h-86l45 213h-428zM1126 281h344l99 458z" />
<glyph unicode="&#xbd;" horiz-adv-x="1708" d="M256 -29l1223 1473h104l-1223 -1473h-104zM356 1290l11 53q55 2 99 8.5t81 24t65.5 50t51.5 87.5h67l-184 -866h-86l137 643h-242zM1006 0q14 61 37.5 112.5t78.5 98.5q90 78 180.5 123t166 84t129 83t69.5 122q16 86 -34 132t-136 46q-47 0 -89 -17.5t-76 -48 t-56.5 -70.5t-30.5 -83h-90q29 129 128 206.5t239 77.5q141 0 200.5 -69.5t36.5 -169.5q-18 -86 -74.5 -143.5t-129 -98.5t-149.5 -73.5t-136 -69.5q-53 -33 -98.5 -73t-61.5 -103h522l-14 -66h-612z" />
<glyph unicode="&#xbe;" horiz-adv-x="1708" d="M272 897h86q-23 -98 31.5 -149.5t159.5 -51.5q51 0 98 16.5t84 43t60.5 62.5t29.5 73q10 53 -6 88t-52 55.5t-89 27.5t-115 3l12 63q119 0 201 33t102 133q16 80 -35 117t-130 37q-92 0 -159 -52.5t-83 -133.5h-84q12 59 43 106t88 88q53 37 109.5 47t115.5 10 q55 0 101.5 -13t77 -39.5t44 -66.5t1.5 -94q-29 -139 -175 -194q47 -14 75 -38t40 -53.5t12 -60t-6 -61.5q-23 -109 -118 -183.5t-242 -78.5q-82 0 -138.5 13t-90 44t-45 82t-3.5 127zM420 -29l1222 1473h105l-1223 -1473h-104zM1028 213l14 68l560 577h77l-123 -577h130 l-15 -68h-129l-45 -213h-86l45 213h-428zM1126 281h344l99 458z" />
<glyph unicode="&#xbf;" horiz-adv-x="1024" d="M49 -39q18 88 72.5 153.5t123 121t142.5 110.5t133 127q47 53 64.5 117.5t29.5 126.5h119q-10 -55 -23.5 -106.5t-35 -98.5t-53 -90t-80.5 -86q-55 -47 -113.5 -92t-110 -91.5t-89.5 -95.5t-50 -106q-23 -111 43 -187.5t219 -76.5q76 0 140.5 26.5t116 73.5t85 109.5 t45.5 136.5h125q-14 -102 -62 -186.5t-121 -144.5t-164 -93t-191 -33q-211 0 -306.5 105.5t-58.5 279.5zM637 909l39 181h149l-39 -181h-149z" />
<glyph unicode="&#xc0;" horiz-adv-x="1366" d="M31 0l893 1475h157l252 -1475h-143l-72 463h-672l-272 -463h-143zM518 582h578l-123 774zM831 1874h160l168 -285h-104z" />
<glyph unicode="&#xc1;" horiz-adv-x="1366" d="M31 0l893 1475h157l252 -1475h-143l-72 463h-672l-272 -463h-143zM518 582h578l-123 774zM903 1589l287 285h158l-340 -285h-105z" />
<glyph unicode="&#xc2;" horiz-adv-x="1366" d="M31 0l893 1475h157l252 -1475h-143l-72 463h-672l-272 -463h-143zM518 582h578l-123 774zM729 1589l293 285h137l172 -285h-133l-123 209l-213 -209h-133z" />
<glyph unicode="&#xc3;" horiz-adv-x="1366" d="M31 0l893 1475h157l252 -1475h-143l-72 463h-672l-272 -463h-143zM518 582h578l-123 774zM717 1614q12 37 29.5 66.5t37.5 54.5q41 43 93.5 64.5t103.5 8.5q27 -6 56.5 -20t60 -29.5t60.5 -27t56 -11.5q45 0 70 33t41 70h78q-6 -20 -14.5 -40t-18.5 -38q-33 -49 -76 -86 t-102 -37q-43 0 -78 14.5t-67.5 32t-65.5 31.5t-68 14q-47 0 -73.5 -30.5t-48.5 -69.5h-74z" />
<glyph unicode="&#xc4;" horiz-adv-x="1366" d="M31 0l893 1475h157l252 -1475h-143l-72 463h-672l-272 -463h-143zM518 582h578l-123 774zM807 1610l45 209h133l-45 -209h-133zM1133 1610l45 209h133l-45 -209h-133z" />
<glyph unicode="&#xc5;" horiz-adv-x="1366" d="M31 0l893 1475h157l252 -1475h-143l-72 463h-672l-272 -463h-143zM518 582h578l-123 774zM903 1800q8 41 33 78t58.5 65.5t74.5 45t82 16.5t75 -16.5t55.5 -45t29.5 -65.5t0 -78q-10 -41 -34 -77.5t-57.5 -64.5t-73.5 -44.5t-81 -16.5q-84 0 -132 59.5t-30 143.5z M971 1800q-12 -55 21.5 -95t86.5 -40t102.5 41t61.5 94q10 53 -20.5 95t-85.5 42q-29 0 -55.5 -11t-50 -29.5t-39 -44t-21.5 -52.5z" />
<glyph unicode="&#xc6;" horiz-adv-x="2048" d="M10 0l955 1475h1290l-25 -119h-835l-115 -533h760l-25 -118h-760l-125 -586h861l-25 -119h-999l98 463h-621l-294 -463h-140zM526 582h564l165 774h-233z" />
<glyph unicode="&#xc7;" horiz-adv-x="1478" d="M226 450.5q-3 135.5 30 286.5q45 211 128 358.5t194.5 241t245.5 135t282 41.5q227 0 356 -118.5t117 -347.5h-143q-4 188 -103.5 268t-288.5 80q-133 0 -241.5 -53.5t-189.5 -143.5t-136 -208t-82 -249q-27 -123 -26.5 -241.5t40.5 -211.5t128 -150.5t239 -57.5 q94 0 178 30.5t155 85t126 128t94 161.5h146q-47 -104 -112 -197t-154 -165t-202.5 -115t-256.5 -45l-86 -84q20 4 39.5 8t37.5 4q68 0 103 -33.5t33 -72.5q-2 -55 -27 -95t-62.5 -64.5t-85 -37t-96.5 -12.5q-47 0 -92 11.5t-86 27.5l43 61q31 -10 60.5 -20t64.5 -10 q23 0 47.5 5t47 16t38.5 29.5t23 45.5q10 41 -17.5 60.5t-66.5 19.5q-23 0 -46.5 -5t-48.5 -12l-24 27l123 131q-154 10 -250 75.5t-144.5 171t-51.5 241z" />
<glyph unicode="&#xc8;" horiz-adv-x="1251" d="M166 0l313 1475h981l-24 -119h-842l-115 -533h760l-25 -118h-759l-125 -586h862l-25 -119h-1001zM774 1874h160l168 -285h-105z" />
<glyph unicode="&#xc9;" horiz-adv-x="1251" d="M166 0l313 1475h981l-24 -119h-842l-115 -533h760l-25 -118h-759l-125 -586h862l-25 -119h-1001zM846 1589l287 285h157l-340 -285h-104z" />
<glyph unicode="&#xca;" horiz-adv-x="1251" d="M166 0l313 1475h981l-24 -119h-842l-115 -533h760l-25 -118h-759l-125 -586h862l-25 -119h-1001zM672 1589l293 285h137l172 -285h-133l-123 209l-213 -209h-133z" />
<glyph unicode="&#xcb;" horiz-adv-x="1251" d="M166 0l313 1475h981l-24 -119h-842l-115 -533h760l-25 -118h-759l-125 -586h862l-25 -119h-1001zM750 1610l45 209h133l-45 -209h-133zM1075 1610l45 209h133l-45 -209h-133z" />
<glyph unicode="&#xcc;" horiz-adv-x="569" d="M215 0l313 1475h140l-314 -1475h-139zM434 1874h160l168 -285h-105z" />
<glyph unicode="&#xcd;" horiz-adv-x="569" d="M215 0l313 1475h140l-314 -1475h-139zM463 1589l287 285h157l-340 -285h-104z" />
<glyph unicode="&#xce;" horiz-adv-x="569" d="M215 0l313 1475h140l-314 -1475h-139zM289 1589l293 285h137l172 -285h-133l-123 209l-213 -209h-133z" />
<glyph unicode="&#xcf;" horiz-adv-x="569" d="M215 0l313 1475h140l-314 -1475h-139zM367 1610l45 209h133l-45 -209h-133zM692 1610l45 209h133l-45 -209h-133z" />
<glyph unicode="&#xd0;" horiz-adv-x="1478" d="M166 0l153 723h-145l25 119h145l135 633h504q61 0 119.5 -3.5t114 -14.5t105.5 -33.5t93 -59.5q61 -53 92 -130t41.5 -162t2 -172t-22.5 -161q-16 -74 -41 -149.5t-60.5 -148t-85 -139t-110.5 -122.5q-63 -57 -131 -92t-139.5 -54.5t-144.5 -26.5t-146 -7h-504zM330 119 h334q94 0 180 11t180 56q82 37 143.5 100.5t105.5 138.5t71.5 157t44.5 157q16 80 23 163t-5 158t-49 137.5t-105 102.5q-59 35 -146 45.5t-179 10.5h-334l-111 -514h330l-25 -119h-329z" />
<glyph unicode="&#xd1;" horiz-adv-x="1478" d="M162 0l313 1475h158l577 -1289h4l275 1289h139l-313 -1475h-162l-575 1286h-5l-272 -1286h-139zM774 1614q12 37 29.5 66.5t38.5 54.5q41 43 93 64.5t103 8.5q27 -6 56.5 -20t60.5 -29.5t60.5 -27t56.5 -11.5q45 0 69.5 33t40.5 70h78q-6 -20 -14 -40t-19 -38 q-33 -49 -75.5 -86t-102.5 -37q-43 0 -77.5 14.5t-67.5 32t-65.5 31.5t-67.5 14q-47 0 -74 -30.5t-49 -69.5h-74z" />
<glyph unicode="&#xd2;" horiz-adv-x="1593" d="M243.5 435q-14.5 140 20.5 300q33 162 107.5 303.5t184.5 247t249 166.5t305 61q172 0 290 -60t182.5 -165.5t77.5 -248t-22 -304.5q-35 -160 -107.5 -300t-181 -245.5t-251 -167t-312.5 -61.5t-285.5 61.5t-179 167t-78 245.5zM382 485.5q7 -118.5 54 -209t139.5 -143.5 t237.5 -53q143 0 258 54t201 144.5t143.5 209t83.5 247.5q33 154 20.5 276t-65.5 208t-145 131t-219 45q-141 0 -256 -55.5t-201 -146.5t-144.5 -210t-85.5 -248q-28 -131 -21 -249.5zM946 1874h160l168 -285h-105z" />
<glyph unicode="&#xd3;" horiz-adv-x="1593" d="M243.5 435q-14.5 140 20.5 300q33 162 107.5 303.5t184.5 247t249 166.5t305 61q172 0 290 -60t182.5 -165.5t77.5 -248t-22 -304.5q-35 -160 -107.5 -300t-181 -245.5t-251 -167t-312.5 -61.5t-285.5 61.5t-179 167t-78 245.5zM382 485.5q7 -118.5 54 -209t139.5 -143.5 t237.5 -53q143 0 258 54t201 144.5t143.5 209t83.5 247.5q33 154 20.5 276t-65.5 208t-145 131t-219 45q-141 0 -256 -55.5t-201 -146.5t-144.5 -210t-85.5 -248q-28 -131 -21 -249.5zM1018 1589l287 285h157l-340 -285h-104z" />
<glyph unicode="&#xd4;" horiz-adv-x="1593" d="M243.5 435q-14.5 140 20.5 300q33 162 107.5 303.5t184.5 247t249 166.5t305 61q172 0 290 -60t182.5 -165.5t77.5 -248t-22 -304.5q-35 -160 -107.5 -300t-181 -245.5t-251 -167t-312.5 -61.5t-285.5 61.5t-179 167t-78 245.5zM382 485.5q7 -118.5 54 -209t139.5 -143.5 t237.5 -53q143 0 258 54t201 144.5t143.5 209t83.5 247.5q33 154 20.5 276t-65.5 208t-145 131t-219 45q-141 0 -256 -55.5t-201 -146.5t-144.5 -210t-85.5 -248q-28 -131 -21 -249.5zM844 1589l293 285h137l172 -285h-133l-123 209l-213 -209h-133z" />
<glyph unicode="&#xd5;" horiz-adv-x="1593" d="M243.5 435q-14.5 140 20.5 300q33 162 107.5 303.5t184.5 247t249 166.5t305 61q172 0 290 -60t182.5 -165.5t77.5 -248t-22 -304.5q-35 -160 -107.5 -300t-181 -245.5t-251 -167t-312.5 -61.5t-285.5 61.5t-179 167t-78 245.5zM382 485.5q7 -118.5 54 -209t139.5 -143.5 t237.5 -53q143 0 258 54t201 144.5t143.5 209t83.5 247.5q33 154 20.5 276t-65.5 208t-145 131t-219 45q-141 0 -256 -55.5t-201 -146.5t-144.5 -210t-85.5 -248q-28 -131 -21 -249.5zM831 1614q12 37 30 66.5t38 54.5q41 43 93 64.5t104 8.5q27 -6 56.5 -20t60 -29.5 t60.5 -27t56 -11.5q45 0 69.5 33t41.5 70h78q-6 -20 -14.5 -40t-18.5 -38q-33 -49 -76 -86t-102 -37q-43 0 -78 14.5t-68 32t-65.5 31.5t-67.5 14q-47 0 -73.5 -30.5t-49.5 -69.5h-74z" />
<glyph unicode="&#xd6;" horiz-adv-x="1593" d="M243.5 435q-14.5 140 20.5 300q33 162 107.5 303.5t184.5 247t249 166.5t305 61q172 0 290 -60t182.5 -165.5t77.5 -248t-22 -304.5q-35 -160 -107.5 -300t-181 -245.5t-251 -167t-312.5 -61.5t-285.5 61.5t-179 167t-78 245.5zM382 485.5q7 -118.5 54 -209t139.5 -143.5 t237.5 -53q143 0 258 54t201 144.5t143.5 209t83.5 247.5q33 154 20.5 276t-65.5 208t-145 131t-219 45q-141 0 -256 -55.5t-201 -146.5t-144.5 -210t-85.5 -248q-28 -131 -21 -249.5zM922 1610l45 209h133l-45 -209h-133zM1247 1610l45 209h133l-45 -209h-133z" />
<glyph unicode="&#xd7;" horiz-adv-x="1351" d="M188 86l525 432l-340 432l90 74l342 -430l520 430l61 -74l-522 -432l338 -432l-92 -74l-338 430l-524 -430z" />
<glyph unicode="&#xd8;" horiz-adv-x="1593" d="M84 -6l227 207q-61 104 -73.5 240.5t20.5 293.5q35 164 111.5 306.5t185.5 247t248 164.5t301 60q139 0 250.5 -41.5t187.5 -136.5l211 195l64 -72l-222 -205q45 -66 61.5 -199.5t-24.5 -318.5q-35 -160 -107.5 -300t-181 -245.5t-251 -167t-312.5 -61.5 q-141 0 -243.5 42t-169.5 120l-217 -199zM376 501.5q5 -110.5 44 -200.5l1014 936q-45 66 -127 112t-224 46q-141 0 -255.5 -55.5t-200.5 -147.5t-144.5 -211t-85.5 -246q-26 -123 -21 -233.5zM471 219q51 -66 134 -102.5t202 -36.5q143 0 258 53t201 144.5t142 210 t85 247.5q23 109 23 215.5t-35 196.5z" />
<glyph unicode="&#xd9;" horiz-adv-x="1478" d="M287 555l194 920h140l-187 -879q-59 -274 17.5 -395t304.5 -121q119 0 208 31.5t154.5 96t108.5 161t71 227.5l187 879h139l-194 -920q-61 -289 -236.5 -441.5t-462.5 -152.5q-289 0 -397 155.5t-47 438.5zM889 1874h160l168 -285h-105z" />
<glyph unicode="&#xda;" horiz-adv-x="1478" d="M287 555l194 920h140l-187 -879q-59 -274 17.5 -395t304.5 -121q119 0 208 31.5t154.5 96t108.5 161t71 227.5l187 879h139l-194 -920q-61 -289 -236.5 -441.5t-462.5 -152.5q-289 0 -397 155.5t-47 438.5zM961 1589l286 285h158l-340 -285h-104z" />
<glyph unicode="&#xdb;" horiz-adv-x="1478" d="M287 555l194 920h140l-187 -879q-59 -274 17.5 -395t304.5 -121q119 0 208 31.5t154.5 96t108.5 161t71 227.5l187 879h139l-194 -920q-61 -289 -236.5 -441.5t-462.5 -152.5q-289 0 -397 155.5t-47 438.5zM786 1589l293 285h138l172 -285h-134l-122 209l-213 -209h-134z " />
<glyph unicode="&#xdc;" horiz-adv-x="1478" d="M287 555l194 920h140l-187 -879q-59 -274 17.5 -395t304.5 -121q119 0 208 31.5t154.5 96t108.5 161t71 227.5l187 879h139l-194 -920q-61 -289 -236.5 -441.5t-462.5 -152.5q-289 0 -397 155.5t-47 438.5zM864 1610l45 209h133l-45 -209h-133zM1190 1610l45 209h133 l-45 -209h-133z" />
<glyph unicode="&#xdd;" horiz-adv-x="1251" d="M338 1475h160l282 -711l596 711h162l-711 -832l-137 -643h-139l135 633zM846 1589l287 285h157l-340 -285h-104z" />
<glyph unicode="&#xde;" horiz-adv-x="1251" d="M160 0l313 1475h139l-65 -308h399q143 0 229.5 -32.5t128.5 -90t48 -132t-13 -156.5q-27 -123 -93 -203t-156.5 -126t-194.5 -64.5t-207 -18.5h-315l-74 -344h-139zM397 463h320q98 0 179 12t142.5 46t103.5 92.5t60 152.5q31 139 -45 211t-274 72h-361z" />
<glyph unicode="&#xdf;" horiz-adv-x="1024" d="M106 0l238 1114q41 190 155.5 289.5t309.5 99.5q88 0 155.5 -26.5t108.5 -75.5t54.5 -120t-5.5 -159q-20 -98 -80.5 -168.5t-152.5 -128.5q53 -20 88 -58t52.5 -87t19.5 -106.5t-11 -114.5q-51 -240 -191 -364t-345 -124q-20 0 -41 3t-33 8l23 108q74 -14 144.5 0 t130.5 54t105.5 105.5t63.5 158.5q41 195 -30.5 277.5t-268.5 82.5l20 102q70 2 131.5 15.5t110.5 43t84 77t51 118.5q12 57 8 106.5t-27.5 85.5t-68.5 56.5t-112 20.5q-90 0 -147.5 -21.5t-93.5 -61.5t-56.5 -95.5t-34.5 -122.5l-232 -1092h-123z" />
<glyph unicode="&#xe0;" d="M153.5 142.5q-16.5 56.5 0.5 133.5q55 270 438 320l174 22q35 4 85 12.5t85 22.5t48 48t20 63q10 47 3.5 86t-32 67.5t-71.5 45t-118 16.5q-127 0 -221 -51t-139 -189h-125q27 94 77 161t117.5 109t148.5 61.5t167 19.5q80 0 146.5 -17.5t110.5 -55.5t60.5 -101.5 t-2.5 -155.5l-122 -578q-16 -72 5 -91t105 9l-20 -96q-14 -4 -44 -12t-57 -8t-53 6q-59 10 -67.5 56t1.5 101q-96 -86 -205.5 -131t-226.5 -45q-70 0 -130 18.5t-101 57.5t-57.5 95.5zM283 272q-10 -49 2 -84.5t39.5 -59.5t66.5 -35t82 -11q74 0 146.5 18.5t135 56.5 t107.5 96t64 138l35 166q-86 -33 -167 -43t-163 -16q-143 -10 -234 -63.5t-114 -162.5zM633 1460h160l165 -284h-104z" />
<glyph unicode="&#xe1;" d="M153.5 142.5q-16.5 56.5 0.5 133.5q55 270 438 320l174 22q35 4 85 12.5t85 22.5t48 48t20 63q10 47 3.5 86t-32 67.5t-71.5 45t-118 16.5q-127 0 -221 -51t-139 -189h-125q27 94 77 161t117.5 109t148.5 61.5t167 19.5q80 0 146.5 -17.5t110.5 -55.5t60.5 -101.5 t-2.5 -155.5l-122 -578q-16 -72 5 -91t105 9l-20 -96q-14 -4 -44 -12t-57 -8t-53 6q-59 10 -67.5 56t1.5 101q-96 -86 -205.5 -131t-226.5 -45q-70 0 -130 18.5t-101 57.5t-57.5 95.5zM283 272q-10 -49 2 -84.5t39.5 -59.5t66.5 -35t82 -11q74 0 146.5 18.5t135 56.5 t107.5 96t64 138l35 166q-86 -33 -167 -43t-163 -16q-143 -10 -234 -63.5t-114 -162.5zM702 1176l289 284h158l-342 -284h-105z" />
<glyph unicode="&#xe2;" d="M153.5 142.5q-16.5 56.5 0.5 133.5q55 270 438 320l174 22q35 4 85 12.5t85 22.5t48 48t20 63q10 47 3.5 86t-32 67.5t-71.5 45t-118 16.5q-127 0 -221 -51t-139 -189h-125q27 94 77 161t117.5 109t148.5 61.5t167 19.5q80 0 146.5 -17.5t110.5 -55.5t60.5 -101.5 t-2.5 -155.5l-122 -578q-16 -72 5 -91t105 9l-20 -96q-14 -4 -44 -12t-57 -8t-53 6q-59 10 -67.5 56t1.5 101q-96 -86 -205.5 -131t-226.5 -45q-70 0 -130 18.5t-101 57.5t-57.5 95.5zM283 272q-10 -49 2 -84.5t39.5 -59.5t66.5 -35t82 -11q74 0 146.5 18.5t135 56.5 t107.5 96t64 138l35 166q-86 -33 -167 -43t-163 -16q-143 -10 -234 -63.5t-114 -162.5zM528 1176l295 284h138l169 -284h-133l-123 208l-212 -208h-134z" />
<glyph unicode="&#xe3;" d="M153.5 142.5q-16.5 56.5 0.5 133.5q55 270 438 320l174 22q35 4 85 12.5t85 22.5t48 48t20 63q10 47 3.5 86t-32 67.5t-71.5 45t-118 16.5q-127 0 -221 -51t-139 -189h-125q27 94 77 161t117.5 109t148.5 61.5t167 19.5q80 0 146.5 -17.5t110.5 -55.5t60.5 -101.5 t-2.5 -155.5l-122 -578q-16 -72 5 -91t105 9l-20 -96q-14 -4 -44 -12t-57 -8t-53 6q-59 10 -67.5 56t1.5 101q-96 -86 -205.5 -131t-226.5 -45q-70 0 -130 18.5t-101 57.5t-57.5 95.5zM283 272q-10 -49 2 -84.5t39.5 -59.5t66.5 -35t82 -11q74 0 146.5 18.5t135 56.5 t107.5 96t64 138l35 166q-86 -33 -167 -43t-163 -16q-143 -10 -234 -63.5t-114 -162.5zM518 1200q10 37 27.5 66.5t38.5 54.5q41 43 93 64.5t103 9.5q27 -6 56.5 -20.5t60.5 -30t60.5 -26.5t56.5 -11q45 0 69.5 32.5t40.5 69.5h78q-6 -20 -14 -39.5t-19 -38.5 q-33 -49 -75.5 -86t-102.5 -37q-43 0 -77.5 14.5t-67.5 32t-65.5 31.5t-67.5 14q-47 0 -74 -30.5t-47 -69.5h-74z" />
<glyph unicode="&#xe4;" d="M153.5 142.5q-16.5 56.5 0.5 133.5q55 270 438 320l174 22q35 4 85 12.5t85 22.5t48 48t20 63q10 47 3.5 86t-32 67.5t-71.5 45t-118 16.5q-127 0 -221 -51t-139 -189h-125q27 94 77 161t117.5 109t148.5 61.5t167 19.5q80 0 146.5 -17.5t110.5 -55.5t60.5 -101.5 t-2.5 -155.5l-122 -578q-16 -72 5 -91t105 9l-20 -96q-14 -4 -44 -12t-57 -8t-53 6q-59 10 -67.5 56t1.5 101q-96 -86 -205.5 -131t-226.5 -45q-70 0 -130 18.5t-101 57.5t-57.5 95.5zM283 272q-10 -49 2 -84.5t39.5 -59.5t66.5 -35t82 -11q74 0 146.5 18.5t135 56.5 t107.5 96t64 138l35 166q-86 -33 -167 -43t-163 -16q-143 -10 -234 -63.5t-114 -162.5zM606 1196l45 209h133l-45 -209h-133zM932 1196l45 209h133l-45 -209h-133z" />
<glyph unicode="&#xe5;" d="M153.5 142.5q-16.5 56.5 0.5 133.5q55 270 438 320l174 22q35 4 85 12.5t85 22.5t48 48t20 63q10 47 3.5 86t-32 67.5t-71.5 45t-118 16.5q-127 0 -221 -51t-139 -189h-125q27 94 77 161t117.5 109t148.5 61.5t167 19.5q80 0 146.5 -17.5t110.5 -55.5t60.5 -101.5 t-2.5 -155.5l-122 -578q-16 -72 5 -91t105 9l-20 -96q-14 -4 -44 -12t-57 -8t-53 6q-59 10 -67.5 56t1.5 101q-96 -86 -205.5 -131t-226.5 -45q-70 0 -130 18.5t-101 57.5t-57.5 95.5zM283 272q-10 -49 2 -84.5t39.5 -59.5t66.5 -35t82 -11q74 0 146.5 18.5t135 56.5 t107.5 96t64 138l35 166q-86 -33 -167 -43t-163 -16q-143 -10 -234 -63.5t-114 -162.5zM662 1386q8 41 32.5 78t58 66t74.5 45t82 16t75 -16t55.5 -45t29.5 -66t0 -78q-10 -41 -33.5 -77.5t-57.5 -64t-74 -44t-81 -16.5q-84 0 -131.5 59t-29.5 143zM729 1386 q-12 -55 21.5 -95t87.5 -40q53 0 102 41t61 94q10 53 -20.5 95.5t-85.5 42.5t-104.5 -41.5t-61.5 -96.5z" />
<glyph unicode="&#xe6;" horiz-adv-x="1820" d="M135.5 136.5q-14.5 56.5 1.5 133.5q29 139 138.5 226.5t302.5 107.5l118 12q80 8 130.5 18.5t78 25t40.5 36t20 52.5q29 135 -19.5 183t-189.5 48q-123 0 -213 -52.5t-133 -181.5h-127q25 90 72.5 155t113.5 107t143.5 62.5t161.5 20.5q51 0 106.5 -7.5t102.5 -27t81 -53 t44 -87.5q90 102 188.5 138.5t219.5 36.5q133 0 209.5 -46.5t111.5 -126t33 -186t-29 -229.5h-799q-18 -86 -15 -163t34 -133t91 -90t155 -34q123 0 214 65.5t146 180.5h129q-78 -172 -211 -264.5t-313 -92.5q-139 0 -226.5 56.5t-134.5 177.5q-37 -41 -82 -82t-104 -75 t-135 -55.5t-174 -21.5q-72 0 -130.5 17.5t-97 54.5t-53 93.5zM272 289q-23 -104 26.5 -155.5t152.5 -51.5q186 0 298.5 93t143.5 243l31 143q-53 -27 -118 -38t-132.5 -19t-134 -17.5t-120.5 -31t-93.5 -61t-53.5 -105.5zM1065 604h668q16 76 10 144.5t-36 120t-84 81 t-134 29.5q-96 0 -171 -38t-127 -94t-83 -122t-43 -121z" />
<glyph unicode="&#xe7;" d="M189.5 322.5q-5.5 95.5 19.5 205.5q23 111 76 212.5t131 179t179 124t220 46.5q184 0 279.5 -88.5t83.5 -274.5h-125q-6 119 -72 185.5t-188 66.5q-94 0 -170 -39t-133.5 -103.5t-94.5 -145.5t-55 -163q-18 -84 -15 -163.5t32.5 -143t89 -101.5t155.5 -38 q137 0 236.5 75.5t148.5 209.5h131q-35 -86 -85 -158t-116.5 -124t-148.5 -82t-180 -32l-94 -92q20 4 39.5 8t37.5 4q68 0 103 -33.5t33 -72.5q-2 -55 -27 -95t-62.5 -64.5t-85 -37t-96.5 -12.5q-47 0 -92 11.5t-86 27.5l43 61q31 -10 60.5 -20t64.5 -10q23 0 47.5 5t47 16 t38.5 29.5t23 45.5q10 41 -17.5 60.5t-66.5 19.5q-23 0 -46.5 -5t-48.5 -12l-24 27l137 145q-109 10 -179.5 56.5t-106 120t-41 169z" />
<glyph unicode="&#xe8;" d="M186.5 308.5q-6.5 101.5 18.5 217.5q25 117 80 219.5t134 179t178 121t214 44.5q219 0 312.5 -151t29.5 -437h-823q-18 -86 -12 -163t38.5 -133t93 -90t148.5 -34q121 0 220.5 63.5t152.5 180.5h137q-39 -76 -89 -140.5t-115.5 -112.5t-147.5 -75t-183 -27 q-127 0 -209.5 43t-126.5 118t-50.5 176.5zM352 604h692q16 78 9.5 146.5t-37.5 119t-88.5 80t-139.5 29.5t-150.5 -30.5t-123.5 -82t-96 -119t-66 -143.5zM633 1460h160l165 -284h-104z" />
<glyph unicode="&#xe9;" d="M186.5 308.5q-6.5 101.5 18.5 217.5q25 117 80 219.5t134 179t178 121t214 44.5q219 0 312.5 -151t29.5 -437h-823q-18 -86 -12 -163t38.5 -133t93 -90t148.5 -34q121 0 220.5 63.5t152.5 180.5h137q-39 -76 -89 -140.5t-115.5 -112.5t-147.5 -75t-183 -27 q-127 0 -209.5 43t-126.5 118t-50.5 176.5zM352 604h692q16 78 9.5 146.5t-37.5 119t-88.5 80t-139.5 29.5t-150.5 -30.5t-123.5 -82t-96 -119t-66 -143.5zM702 1176l289 284h158l-342 -284h-105z" />
<glyph unicode="&#xea;" d="M186.5 308.5q-6.5 101.5 18.5 217.5q25 117 80 219.5t134 179t178 121t214 44.5q219 0 312.5 -151t29.5 -437h-823q-18 -86 -12 -163t38.5 -133t93 -90t148.5 -34q121 0 220.5 63.5t152.5 180.5h137q-39 -76 -89 -140.5t-115.5 -112.5t-147.5 -75t-183 -27 q-127 0 -209.5 43t-126.5 118t-50.5 176.5zM352 604h692q16 78 9.5 146.5t-37.5 119t-88.5 80t-139.5 29.5t-150.5 -30.5t-123.5 -82t-96 -119t-66 -143.5zM528 1176l295 284h138l169 -284h-133l-123 208l-212 -208h-134z" />
<glyph unicode="&#xeb;" d="M186.5 308.5q-6.5 101.5 18.5 217.5q25 117 80 219.5t134 179t178 121t214 44.5q219 0 312.5 -151t29.5 -437h-823q-18 -86 -12 -163t38.5 -133t93 -90t148.5 -34q121 0 220.5 63.5t152.5 180.5h137q-39 -76 -89 -140.5t-115.5 -112.5t-147.5 -75t-183 -27 q-127 0 -209.5 43t-126.5 118t-50.5 176.5zM352 604h692q16 78 9.5 146.5t-37.5 119t-88.5 80t-139.5 29.5t-150.5 -30.5t-123.5 -82t-96 -119t-66 -143.5zM606 1196l45 209h133l-45 -209h-133zM932 1196l45 209h133l-45 -209h-133z" />
<glyph unicode="&#xec;" horiz-adv-x="454" d="M160 0l225 1061h123l-225 -1061h-123zM291 1460h160l165 -284h-104z" />
<glyph unicode="&#xed;" horiz-adv-x="454" d="M160 0l225 1061h123l-225 -1061h-123zM317 1176l289 284h158l-342 -284h-105z" />
<glyph unicode="&#xee;" horiz-adv-x="454" d="M143 1176l295 284h137l170 -284h-133l-123 208l-213 -208h-133zM160 0l225 1061h123l-225 -1061h-123z" />
<glyph unicode="&#xef;" horiz-adv-x="454" d="M160 0l225 1061h123l-225 -1061h-123zM221 1196l45 209h133l-45 -209h-133zM547 1196l45 209h133l-45 -209h-133z" />
<glyph unicode="&#xf0;" d="M178.5 286.5q-16.5 104.5 11.5 243.5q23 104 72 205t124 179.5t177.5 127t229.5 48.5q51 0 89 -4.5t69.5 -14.5t60 -28.5t59.5 -47.5q-14 104 -43 178t-78 127l-145 -100l-68 49l156 107q-57 47 -145 90l98 67q41 -18 75.5 -40.5t67.5 -51.5l131 92l66 -51l-142 -98 q115 -135 152 -347t-22 -487q-27 -127 -84.5 -229t-137.5 -176t-179 -114t-210 -40q-102 2 -183 37t-133 104.5t-68.5 174zM307 349q6 -83 39 -142.5t93.5 -92t148.5 -32.5q96 0 173 38t133 101.5t93 143t55 165.5q18 94 16.5 176t-31.5 142.5t-90 95.5t-159 35 q-96 0 -173 -38t-134 -100.5t-94 -143.5t-55 -167q-21 -98 -15 -181z" />
<glyph unicode="&#xf1;" d="M147 0l226 1061h123l-31 -148q90 78 179 127.5t200 49.5q98 0 175 -34t116 -118q27 -57 21.5 -117.5t-19.5 -126.5l-148 -694h-123l148 692q31 143 -17.5 215t-195.5 72q-57 0 -108.5 -17.5t-95.5 -46t-79 -65.5t-57 -78q-29 -51 -43.5 -98t-26.5 -103l-121 -571h-123z M518 1200q10 37 27.5 66.5t38.5 54.5q41 43 93 64.5t103 9.5q27 -6 56.5 -20.5t60.5 -30t60.5 -26.5t56.5 -11q45 0 69.5 32.5t40.5 69.5h78q-6 -20 -14 -39.5t-19 -38.5q-33 -49 -75.5 -86t-102.5 -37q-43 0 -77.5 14.5t-67.5 32t-65.5 31.5t-67.5 14q-47 0 -74 -30.5 t-47 -69.5h-74z" />
<glyph unicode="&#xf2;" d="M178.5 286.5q-16.5 104.5 11.5 243.5q25 117 77 218.5t130 177t179.5 120t224.5 44.5q125 0 208 -44.5t128 -119t53 -177t-16 -219.5q-27 -127 -84.5 -229t-137.5 -176t-179 -114t-210 -40q-102 2 -183 37t-133 104.5t-68.5 174zM307 349q6 -83 39 -142.5t93.5 -92 t148.5 -32.5q96 0 173 38t133 101.5t93 143t55 165.5q18 94 16.5 176t-31.5 142.5t-90 95.5t-159 35q-96 0 -173 -38t-134 -100.5t-94 -143.5t-55 -167q-21 -98 -15 -181zM633 1460h160l165 -284h-104z" />
<glyph unicode="&#xf3;" d="M178.5 286.5q-16.5 104.5 11.5 243.5q25 117 77 218.5t130 177t179.5 120t224.5 44.5q125 0 208 -44.5t128 -119t53 -177t-16 -219.5q-27 -127 -84.5 -229t-137.5 -176t-179 -114t-210 -40q-102 2 -183 37t-133 104.5t-68.5 174zM307 349q6 -83 39 -142.5t93.5 -92 t148.5 -32.5q96 0 173 38t133 101.5t93 143t55 165.5q18 94 16.5 176t-31.5 142.5t-90 95.5t-159 35q-96 0 -173 -38t-134 -100.5t-94 -143.5t-55 -167q-21 -98 -15 -181zM702 1176l289 284h158l-342 -284h-105z" />
<glyph unicode="&#xf4;" d="M178.5 286.5q-16.5 104.5 11.5 243.5q25 117 77 218.5t130 177t179.5 120t224.5 44.5q125 0 208 -44.5t128 -119t53 -177t-16 -219.5q-27 -127 -84.5 -229t-137.5 -176t-179 -114t-210 -40q-102 2 -183 37t-133 104.5t-68.5 174zM307 349q6 -83 39 -142.5t93.5 -92 t148.5 -32.5q96 0 173 38t133 101.5t93 143t55 165.5q18 94 16.5 176t-31.5 142.5t-90 95.5t-159 35q-96 0 -173 -38t-134 -100.5t-94 -143.5t-55 -167q-21 -98 -15 -181zM528 1176l295 284h138l169 -284h-133l-123 208l-212 -208h-134z" />
<glyph unicode="&#xf5;" d="M178.5 286.5q-16.5 104.5 11.5 243.5q25 117 77 218.5t130 177t179.5 120t224.5 44.5q125 0 208 -44.5t128 -119t53 -177t-16 -219.5q-27 -127 -84.5 -229t-137.5 -176t-179 -114t-210 -40q-102 2 -183 37t-133 104.5t-68.5 174zM307 349q6 -83 39 -142.5t93.5 -92 t148.5 -32.5q96 0 173 38t133 101.5t93 143t55 165.5q18 94 16.5 176t-31.5 142.5t-90 95.5t-159 35q-96 0 -173 -38t-134 -100.5t-94 -143.5t-55 -167q-21 -98 -15 -181zM518 1200q10 37 27.5 66.5t38.5 54.5q41 43 93 64.5t103 9.5q27 -6 56.5 -20.5t60.5 -30t60.5 -26.5 t56.5 -11q45 0 69.5 32.5t40.5 69.5h78q-6 -20 -14 -39.5t-19 -38.5q-33 -49 -75.5 -86t-102.5 -37q-43 0 -77.5 14.5t-67.5 32t-65.5 31.5t-67.5 14q-47 0 -74 -30.5t-47 -69.5h-74z" />
<glyph unicode="&#xf6;" d="M178.5 286.5q-16.5 104.5 11.5 243.5q25 117 77 218.5t130 177t179.5 120t224.5 44.5q125 0 208 -44.5t128 -119t53 -177t-16 -219.5q-27 -127 -84.5 -229t-137.5 -176t-179 -114t-210 -40q-102 2 -183 37t-133 104.5t-68.5 174zM307 349q6 -83 39 -142.5t93.5 -92 t148.5 -32.5q96 0 173 38t133 101.5t93 143t55 165.5q18 94 16.5 176t-31.5 142.5t-90 95.5t-159 35q-96 0 -173 -38t-134 -100.5t-94 -143.5t-55 -167q-21 -98 -15 -181zM606 1196l45 209h133l-45 -209h-133zM932 1196l45 209h133l-45 -209h-133z" />
<glyph unicode="&#xf7;" horiz-adv-x="1351" d="M260 451l27 122h1024l-27 -122h-1024zM602 0l39 180h150l-39 -180h-150zM782 844l37 180h150l-37 -180h-150z" />
<glyph unicode="&#xf8;" d="M74 12l149 140q-41 76 -46 172t18 204q25 117 77 218.5t129.5 178t179 121t224.5 44.5q98 0 171 -28t122 -81l133 127l57 -64l-139 -133q39 -74 45 -172t-16 -211q-27 -123 -81.5 -225t-133 -176t-179 -115t-217.5 -41q-115 0 -186.5 36t-106.5 77l-139 -131zM309 363.5 q4 -68.5 21 -109.5l667 633q-23 33 -73 62.5t-142 29.5q-96 0 -173 -38t-134 -101.5t-94 -144.5t-55 -167q-21 -96 -17 -164.5zM369 174q37 -47 97 -69.5t126 -22.5q96 0 173 38t133 100.5t93 142t56 165.5q16 78 18 152t-23 133z" />
<glyph unicode="&#xf9;" d="M211 208q-4 71 14 154l148 699h123l-148 -696q-29 -137 19.5 -210t193.5 -73q76 0 142.5 29.5t118.5 83t90 127t57 161.5l123 578h122l-225 -1061h-123l31 147q-31 -29 -67.5 -59.5t-83 -56t-102.5 -43t-126 -17.5q-106 0 -171.5 30t-98.5 83t-37 124zM633 1460h160 l165 -284h-104z" />
<glyph unicode="&#xfa;" d="M211 208q-4 71 14 154l148 699h123l-148 -696q-29 -137 19.5 -210t193.5 -73q76 0 142.5 29.5t118.5 83t90 127t57 161.5l123 578h122l-225 -1061h-123l31 147q-31 -29 -67.5 -59.5t-83 -56t-102.5 -43t-126 -17.5q-106 0 -171.5 30t-98.5 83t-37 124zM702 1176l289 284 h158l-342 -284h-105z" />
<glyph unicode="&#xfb;" d="M211 208q-4 71 14 154l148 699h123l-148 -696q-29 -137 19.5 -210t193.5 -73q76 0 142.5 29.5t118.5 83t90 127t57 161.5l123 578h122l-225 -1061h-123l31 147q-31 -29 -67.5 -59.5t-83 -56t-102.5 -43t-126 -17.5q-106 0 -171.5 30t-98.5 83t-37 124zM528 1176l295 284 h138l169 -284h-133l-123 208l-212 -208h-134z" />
<glyph unicode="&#xfc;" d="M211 208q-4 71 14 154l148 699h123l-148 -696q-29 -137 19.5 -210t193.5 -73q76 0 142.5 29.5t118.5 83t90 127t57 161.5l123 578h122l-225 -1061h-123l31 147q-31 -29 -67.5 -59.5t-83 -56t-102.5 -43t-126 -17.5q-106 0 -171.5 30t-98.5 83t-37 124zM606 1196l45 209 h133l-45 -209h-133zM932 1196l45 209h133l-45 -209h-133z" />
<glyph unicode="&#xfd;" horiz-adv-x="1024" d="M53 -403l25 114q23 -4 48.5 -8t51.5 -4q51 0 91 32.5t71 79t56.5 96.5t49.5 85l-184 1069h137l148 -911l532 911h133l-618 -1047q-59 -100 -108.5 -180t-98.5 -136t-102.5 -86t-116.5 -30q-33 0 -62.5 4.5t-52.5 10.5zM645 1176l289 284h158l-342 -284h-105z" />
<glyph unicode="&#xfe;" horiz-adv-x="1251" d="M74 -418l401 1893h123l-127 -601h4q37 51 88 92.5t106.5 68t112 41t107.5 14.5q129 0 211 -43t123 -118t46 -177.5t-20 -219.5q-25 -111 -74 -213t-123.5 -179t-174 -123t-220.5 -46q-113 0 -206 50.5t-129 148.5l-125 -588h-123zM386 355q7 -81 41 -141t92.5 -96 t142.5 -36q94 0 172.5 38t137 103.5t97.5 152.5t55 187q41 201 -37.5 308.5t-234.5 107.5q-86 0 -161 -35t-133 -95.5t-99 -143t-62 -179.5q-18 -90 -11 -171z" />
<glyph unicode="&#xff;" horiz-adv-x="1024" d="M53 -403l25 114q23 -4 48.5 -8t51.5 -4q51 0 91 32.5t71 79t56.5 96.5t49.5 85l-184 1069h137l148 -911l532 911h133l-618 -1047q-59 -100 -108.5 -180t-98.5 -136t-102.5 -86t-116.5 -30q-33 0 -62.5 4.5t-52.5 10.5zM549 1196l45 209h133l-45 -209h-133zM874 1196 l46 209h133l-45 -209h-134z" />
<glyph unicode="&#x152;" horiz-adv-x="2048" d="M214 444.5q-5 139.5 26 290.5q35 160 101.5 302.5t164.5 248t229 166.5t295 61q131 0 230.5 -38.5t146.5 -155.5l33 156h833l-24 -119h-701l-114 -533h655l-25 -118h-655l-125 -586h721l-25 -119h-854l31 147q-43 -37 -91 -70.5t-103.5 -59t-119 -41t-136.5 -15.5 q-170 0 -275.5 64.5t-159 172t-58.5 247zM353 473q3 -121 45 -208t126 -136t217 -49q78 0 164 30.5t156 79.5q74 53 106.5 118t49.5 145l120 567q39 184 -50 279.5t-281 95.5q-233 0 -394 -165t-231 -491q-31 -145 -28 -266z" />
<glyph unicode="&#x153;" horiz-adv-x="1933" d="M172 298q-12 103 14 230q25 117 74 218.5t125 178t175 121t226 44.5q150 0 242 -60.5t131 -195.5q94 129 210 192.5t263 63.5q139 0 217 -49.5t110 -130.5t27.5 -187.5t-28.5 -220.5h-805q-18 -57 -18 -130t29.5 -137.5t92 -108.5t166.5 -44q117 0 214.5 67.5 t144.5 178.5h125q-74 -174 -209 -265.5t-303 -91.5q-152 0 -242 74t-123 184q-92 -129 -220 -193.5t-269 -64.5q-106 0 -185.5 39t-125.5 112t-58 176zM300 346q5 -78 37 -136t90 -93t148 -35q88 0 162 35t132.5 96t99.5 147t63 191q20 92 13 171t-40.5 136t-96 89 t-154.5 32q-84 0 -156 -33t-128 -93t-96 -147.5t-61 -195.5q-18 -86 -13 -164zM1176 604h673q16 80 12.5 148.5t-32.5 119t-84 79t-141 28.5q-78 0 -148 -29.5t-125 -81t-95 -120t-60 -144.5z" />
<glyph unicode="&#x178;" horiz-adv-x="1251" d="M338 1475h160l282 -711l596 711h162l-711 -832l-137 -643h-139l135 633zM750 1610l45 209h133l-45 -209h-133zM1075 1610l45 209h133l-45 -209h-133z" />
<glyph unicode="&#x2c6;" horiz-adv-x="681" d="M299 1176l295 284h137l170 -284h-133l-123 208l-213 -208h-133z" />
<glyph unicode="&#x2dc;" horiz-adv-x="681" d="M289 1200q10 37 27.5 66.5t37.5 54.5q41 43 93.5 64.5t103.5 9.5q27 -6 56.5 -20.5t60 -30t60.5 -26.5t56 -11q45 0 70 32.5t41 69.5h78q-6 -20 -14.5 -39.5t-18.5 -38.5q-33 -49 -76 -86t-102 -37q-43 0 -78 14.5t-67.5 32t-65.5 31.5t-68 14q-47 0 -73.5 -30.5 t-47.5 -69.5h-73z" />
<glyph unicode="&#x2000;" horiz-adv-x="1001" />
<glyph unicode="&#x2001;" horiz-adv-x="2004" />
<glyph unicode="&#x2002;" horiz-adv-x="1001" />
<glyph unicode="&#x2003;" horiz-adv-x="2004" />
<glyph unicode="&#x2004;" horiz-adv-x="667" />
<glyph unicode="&#x2005;" horiz-adv-x="499" />
<glyph unicode="&#x2006;" horiz-adv-x="333" />
<glyph unicode="&#x2007;" horiz-adv-x="333" />
<glyph unicode="&#x2008;" horiz-adv-x="249" />
<glyph unicode="&#x2009;" horiz-adv-x="399" />
<glyph unicode="&#x200a;" horiz-adv-x="110" />
<glyph unicode="&#x2010;" horiz-adv-x="681" d="M182 469l27 127h518l-27 -127h-518z" />
<glyph unicode="&#x2011;" horiz-adv-x="681" d="M182 469l27 127h518l-27 -127h-518z" />
<glyph unicode="&#x2012;" horiz-adv-x="681" d="M182 469l27 127h518l-27 -127h-518z" />
<glyph unicode="&#x2013;" horiz-adv-x="1024" d="M104 487l19 91h1024l-19 -91h-1024z" />
<glyph unicode="&#x2014;" horiz-adv-x="2048" d="M104 487l19 91h2048l-19 -91h-2048z" />
<glyph unicode="&#x2018;" horiz-adv-x="454" d="M356 1014l52 241q20 90 73.5 144.5t122.5 75.5l-16 -76q-29 -16 -56.5 -45t-42.5 -90l-14 -70h70l-39 -180h-150z" />
<glyph unicode="&#x2019;" horiz-adv-x="454" d="M379 1014l16 76q29 16 57.5 44.5t41.5 90.5l14 69h-70l39 181h150l-52 -242q-18 -90 -72 -144.5t-124 -74.5z" />
<glyph unicode="&#x201a;" horiz-adv-x="454" d="M104 -281l17 76q29 16 56.5 45t41.5 90l14 70h-69l39 180h149l-51 -241q-20 -90 -73.5 -145t-123.5 -75z" />
<glyph unicode="&#x201c;" horiz-adv-x="796" d="M391 1014l51 241q20 90 73.5 144.5t123.5 75.5l-16 -76q-29 -16 -56.5 -45t-42.5 -90l-14 -70h70l-39 -180h-150zM700 1014l52 241q20 90 73.5 144.5t122.5 75.5l-16 -76q-29 -16 -56.5 -45t-41.5 -90l-15 -70h70l-39 -180h-150z" />
<glyph unicode="&#x201d;" horiz-adv-x="796" d="M377 1014l16 76q29 16 57.5 44.5t41.5 90.5l14 69h-70l39 181h150l-52 -242q-18 -90 -72 -144.5t-124 -74.5zM686 1014l16 76q29 16 57.5 44.5t41.5 90.5l14 69h-70l39 181h150l-51 -242q-18 -90 -72.5 -144.5t-124.5 -74.5z" />
<glyph unicode="&#x201e;" horiz-adv-x="796" d="M102 -281l17 76q29 16 56.5 45t41.5 90l14 70h-69l39 180h149l-51 -241q-20 -90 -73.5 -145t-123.5 -75zM412 -281l16 76q29 16 56.5 45t41.5 90l15 70h-70l39 180h149l-51 -241q-20 -90 -73 -145t-123 -75z" />
<glyph unicode="&#x2022;" horiz-adv-x="1024" d="M298 592.5q-15 66.5 1 142.5t60 143.5t104.5 119t133.5 80t148 28.5q76 0 137.5 -28.5t101.5 -80t54.5 -119t-2.5 -143.5q-16 -76 -59 -142.5t-104.5 -116.5t-135 -78.5t-149.5 -28.5t-136.5 28.5t-99.5 78.5t-54 116.5z" />
<glyph unicode="&#x2026;" horiz-adv-x="2048" d="M268 0l39 180h150l-39 -180h-150zM950 0l39 180h150l-39 -180h-150zM1632 0l39 180h150l-39 -180h-150z" />
<glyph unicode="&#x202f;" horiz-adv-x="399" />
<glyph unicode="&#x2039;" horiz-adv-x="796" d="M346 467l29 129l348 231l-29 -129l-248 -168l179 -163l-27 -127z" />
<glyph unicode="&#x203a;" horiz-adv-x="796" d="M301 240l27 129l250 168l-179 163l27 127l250 -227l-27 -129z" />
<glyph unicode="&#x205f;" horiz-adv-x="499" />
<glyph unicode="&#x20ac;" d="M141 483l66 111h125q6 53 18 113q6 23 10.5 44t10.5 44h-160l63 110h132q51 154 119.5 256.5t147.5 166t164 90t169 26.5q96 0 158.5 -23.5t101.5 -58.5t58 -77t28 -79l-90 -155q-2 76 -25 130t-60.5 88t-88 49t-107.5 15q-80 0 -147.5 -31.5t-123 -89t-98.5 -135.5 t-75 -172h637l-66 -110h-606l-19 -86q-6 -29 -11 -57.5t-9 -57.5h530l-65 -111h-477q-4 -88 7 -161.5t42.5 -127t85 -83t131.5 -29.5q104 0 203.5 59.5t185.5 163.5l-37 -172q-72 -72 -171 -117t-206 -45q-82 0 -154.5 26t-125 85t-79 157.5t-16.5 243.5h-176z" />
<glyph unicode="&#x2122;" horiz-adv-x="1925" d="M356 1393l17 82h655l-16 -82h-275l-166 -781h-106l166 781h-275zM1006 612l182 863h196l111 -637h4l377 637h197l-183 -863h-106l164 772h-4l-461 -772h-70l-133 772h-4l-164 -772h-106z" />
<glyph unicode="&#xe000;" horiz-adv-x="1060" d="M0 1060h1060v-1060h-1060v1060z" />
<glyph unicode="&#xfb01;" horiz-adv-x="1024" d="M188 0l203 958h-162l23 103h162l37 168q27 127 93 200.5t189 73.5q59 0 101 -8l-25 -113q-37 10 -70 11q-47 0 -77.5 -17.5t-49 -46.5t-29 -64.5t-18.5 -72.5l-28 -131h200l-22 -103h-201l-203 -958h-123zM762 0l225 1061h123l-225 -1061h-123zM1030 1292l39 183h135 l-39 -183h-135z" />
<glyph unicode="&#xfb02;" horiz-adv-x="1024" d="M188 0l203 958h-162l23 103h162l37 168q27 127 93 200.5t189 73.5q59 0 101 -8l-25 -113q-37 10 -70 11q-47 0 -77.5 -17.5t-49 -46.5t-29 -64.5t-18.5 -72.5l-28 -131h200l-22 -103h-201l-203 -958h-123zM762 0l313 1475h123l-313 -1475h-123z" />
<glyph unicode="&#xfb03;" horiz-adv-x="1593" d="M1305 0l225 1061h123l-225 -1061h-123zM1573 1292l39 183h135l-39 -183h-135zM768 0l202 958h-157l22 103h158l37 168q27 127 93.5 200.5t188.5 73.5q59 0 101 -8l-25 -113q-37 10 -69 11q-47 0 -78 -17.5t-49.5 -46.5t-28.5 -64.5t-19 -72.5l-28 -131h205l-23 -103h-205 l-202 -958h-123zM199 0l202 958h-157l22 103h158l37 168q27 127 93.5 200.5t188.5 73.5q59 0 101 -8l-25 -113q-37 10 -69 11q-47 0 -78 -17.5t-49.5 -46.5t-28.5 -64.5t-19 -72.5l-28 -131h205l-23 -103h-205l-202 -958h-123z" />
<glyph unicode="&#xfb04;" horiz-adv-x="1593" d="M1305 0l313 1475h123l-313 -1475h-123zM768 0l202 958h-157l22 103h158l37 168q27 127 93.5 200.5t188.5 73.5q59 0 101 -8l-25 -113q-37 10 -69 11q-47 0 -78 -17.5t-49.5 -46.5t-28.5 -64.5t-19 -72.5l-28 -131h205l-23 -103h-205l-202 -958h-123zM199 0l202 958h-157 l22 103h158l37 168q27 127 93.5 200.5t188.5 73.5q59 0 101 -8l-25 -113q-37 10 -69 11q-47 0 -78 -17.5t-49.5 -46.5t-28.5 -64.5t-19 -72.5l-28 -131h205l-23 -103h-205l-202 -958h-123z" />
</font>
</defs>
</svg>
